<?xml version="1.0" encoding="utf-8"?>
<!-- Generator: Adobe Illustrator 28.0.0, SVG Export Plug-In . SVG Version: 6.00 Build 0)  -->
<svg version="1.1" id="_x32_" xmlns="http://www.w3.org/2000/svg" xmlns:xlink="http://www.w3.org/1999/xlink" x="0px" y="0px"
	 viewBox="0 0 60 60" style="enable-background:new 0 0 60 60;" xml:space="preserve">
<style type="text/css">
	.st0{fill:#00D2D2;}
</style>
<g>
	<g>
		<path class="st0" d="M20.2,47.8c5.4,0,9.2-0.7,9.2-1.4c0.2-2.9-3.4-4.4-4.9-4.9c-0.8-0.3-2-1.2-2-1.7c0-0.4,0-0.8,0-1.4
			c0.5-0.5,0.8-1.6,1-2.8c0.5-0.2,0.8-0.5,1.1-1.7c0.4-1.3-0.6-1.3-0.6-1.3c0.7-2.5-0.2-4.9-1.9-4.7c-1.1-2-4.9,0.5-6.1,0.3
			c0,0.7,0.3,1.2,0.3,1.2c-0.4,0.8-0.3,2.4-0.1,3.2c-0.1,0-0.9,0-0.5,1.3c0.3,1.2,0.6,1.5,1.1,1.7c0.2,1.2,0.6,2.2,1,2.8
			c0,0.6,0,1.1,0,1.4c0,0.5-1.2,1.5-2,1.7c-1.5,0.5-5.2,2.1-4.9,4.9C11,47,14.7,47.8,20.2,47.8z"/>
		<path d="M20.2,48.3c-1.6,0-9.6-0.1-9.7-1.9c-0.2-2.2,1.7-4.2,5.2-5.5c0.7-0.2,1.6-1,1.6-1.3l0-1.2c-0.5-0.7-0.8-1.7-1-2.6
			c-0.5-0.3-0.8-0.8-1.1-1.9c-0.2-0.6-0.1-1.1,0.1-1.5c0.1-0.1,0.2-0.2,0.3-0.3c-0.1-0.9-0.1-2.1,0.1-2.8c-0.1-0.3-0.2-0.7-0.2-1.2
			c0-0.1,0.1-0.3,0.2-0.4c0.1-0.1,0.3-0.1,0.4-0.1c0.3,0,1-0.2,1.6-0.4c1.6-0.5,3.7-1.2,4.7,0.1c0.6,0,1.1,0.3,1.5,0.8
			c0.8,0.9,1,2.5,0.7,4c0.1,0.1,0.2,0.1,0.3,0.3c0.3,0.4,0.3,0.9,0.1,1.5c-0.3,1.1-0.6,1.6-1.1,1.9c-0.2,0.9-0.5,1.9-1,2.6v1.3
			c0,0.2,0.9,1,1.6,1.3c3.7,1.4,5.4,3.2,5.2,5.5C29.7,48.2,21.8,48.3,20.2,48.3z M11.4,46.2c0.5,0.4,3.4,1,8.7,1
			c5.3,0,8.2-0.7,8.7-1c0.1-1.7-1.5-3.1-4.6-4.3c-0.8-0.3-2.3-1.3-2.3-2.2v-1.4c0-0.1,0-0.2,0.1-0.3c0.4-0.4,0.7-1.3,0.9-2.5
			c0-0.2,0.2-0.3,0.3-0.4c0.2-0.1,0.5-0.2,0.8-1.4c0.1-0.4,0.1-0.5,0-0.6c0,0-0.1,0-0.1,0c-0.2,0-0.3-0.1-0.4-0.2
			c-0.1-0.1-0.1-0.3-0.1-0.4c0.5-1.6,0.2-2.9-0.4-3.6c-0.3-0.3-0.6-0.5-1-0.5c-0.2,0-0.4-0.1-0.5-0.2c-0.5-0.9-2-0.5-3.7,0.1
			c-0.6,0.2-1,0.4-1.4,0.4c0.1,0.3,0.2,0.5,0.2,0.5c0.1,0.1,0.1,0.3,0,0.5c-0.2,0.5-0.3,1.6-0.1,2.9c0,0.1,0,0.3-0.1,0.4
			c-0.1,0.1-0.2,0.2-0.4,0.2c0,0-0.1,0-0.1,0c0,0-0.1,0.2,0,0.6c0.3,1.2,0.5,1.3,0.8,1.4c0.2,0.1,0.3,0.2,0.3,0.4
			c0.2,1.2,0.5,2.1,0.9,2.5c0.1,0.1,0.1,0.2,0.1,0.3v1.4c0,1-1.7,2-2.3,2.2C14.3,42.5,11.3,43.9,11.4,46.2z"/>
	</g>
	<g>
		<path class="st0" d="M37.1,7.2C37.1,4.3,34.8,2,32,2H28c-2.8,0-5.1,2.3-5.1,5.2v9.3h14.2V7.2z M33.1,9.2c0,0.6-0.5,1-1,1H28
			c-0.6,0-1-0.5-1-1V7.2c0-0.6,0.5-1,1-1H32c0.6,0,1,0.5,1,1V9.2z"/>
		<path d="M37.1,17H22.9c-0.3,0-0.5-0.2-0.5-0.5V7.2c0-3.1,2.5-5.7,5.6-5.7H32c3.1,0,5.6,2.5,5.6,5.7v9.3C37.6,16.8,37.4,17,37.1,17
			z M23.4,16h13.3V7.2c0-2.6-2.1-4.7-4.6-4.7H28c-2.5,0-4.6,2.1-4.6,4.7V16z M32,10.8H28c-0.8,0-1.5-0.7-1.5-1.5V7.2
			c0-0.8,0.7-1.5,1.5-1.5H32c0.8,0,1.5,0.7,1.5,1.5v2.1C33.5,10.1,32.9,10.8,32,10.8z M28,6.6c-0.3,0-0.5,0.2-0.5,0.5v2.1
			c0,0.3,0.2,0.5,0.5,0.5H32c0.3,0,0.5-0.2,0.5-0.5V7.2c0-0.3-0.2-0.5-0.5-0.5H28z"/>
	</g>
	<g>
		<path class="st0" d="M53.7,14.5H39.2v2c0,1.1-0.9,2.1-2,2.1H22.9c-1.1,0-2-0.9-2-2.1v-2H6.3c-3.2,0-5.8,2.6-5.8,5.9v31.7
			c0,3.2,2.6,5.9,5.8,5.9h47.5c3.2,0,5.8-2.6,5.8-5.9V20.4C59.5,17.2,56.9,14.5,53.7,14.5z M53.4,53.2H6.6V22.2h46.8L53.4,53.2
			L53.4,53.2z"/>
		<path d="M53.7,58.5H6.3c-3.5,0-6.3-2.9-6.3-6.4V20.4C0,16.9,2.8,14,6.3,14h14.6c0.3,0,0.5,0.2,0.5,0.5v2c0,0.9,0.7,1.6,1.5,1.6
			h14.2c0.9,0,1.5-0.7,1.5-1.6v-2c0-0.3,0.2-0.5,0.5-0.5h14.6c3.5,0,6.3,2.9,6.3,6.4v31.7C60,55.6,57.2,58.5,53.7,58.5z M6.3,15
			C3.3,15,1,17.4,1,20.4v31.7c0,3,2.4,5.4,5.3,5.4h47.5c2.9,0,5.3-2.4,5.3-5.4V20.4c0-3-2.4-5.4-5.3-5.4H39.6v1.5
			c0,1.4-1.1,2.6-2.5,2.6H22.9c-1.4,0-2.5-1.2-2.5-2.6V15H6.3z M53.4,53.7H6.6c-0.3,0-0.5-0.2-0.5-0.5V22.2c0-0.3,0.2-0.5,0.5-0.5
			h46.8c0.3,0,0.5,0.2,0.5,0.5v31.1C53.9,53.5,53.7,53.7,53.4,53.7z M7.1,52.7h45.8l0-30.1H7.1V52.7z"/>
	</g>
	<g>
		<rect x="34.5" y="31.2" class="st0" width="12.9" height="3.1"/>
		<path d="M47.4,34.8H34.5c-0.3,0-0.5-0.2-0.5-0.5v-3.1c0-0.3,0.2-0.5,0.5-0.5h12.9c0.3,0,0.5,0.2,0.5,0.5v3.1
			C47.9,34.5,47.7,34.8,47.4,34.8z M35,33.8h11.9v-2.1H35V33.8z"/>
	</g>
	<g>
		<rect x="34.5" y="40.1" class="st0" width="8.8" height="3.1"/>
		<path d="M43.3,43.7h-8.8c-0.3,0-0.5-0.2-0.5-0.5v-3.1c0-0.3,0.2-0.5,0.5-0.5h8.8c0.3,0,0.5,0.2,0.5,0.5v3.1
			C43.8,43.5,43.6,43.7,43.3,43.7z M35,42.7h7.8v-2.1H35V42.7z"/>
	</g>
</g>
</svg>
