<svg viewBox="0 0 306 264" xmlns="http://www.w3.org/2000/svg">
    <path fill="#000000" d="M81.2,30.5C97,0.6,136.1-6,153.9,6.2c20.4,14.1,25,33.4,50.5,40.7c17.3,4.9,22.1-0.3,46.6-4.1c19-3,41.3-0.7,50.7,20.8
		c11.7,26.6-2.6,50.4-23.6,67.9c-6.2,5.1-16.9,24.3-19.5,32.9c-3,10.2-1,22.4-1.2,33.8c-0.3,17.2-6.5,32.9-15.5,43.5
		c-26.1,30.7-73.3,25.4-90.8,5.9c-8.2-9.2-14.1-22.4-23.4-28.8c-8-5.5-17-4.9-25.3-3.4C89,217.9,10.7,236.3,0.6,172.3
		c-2.4-15.5,1.9-44.7,36.8-64C80.5,84.4,70.3,51.3,81.2,30.5z" transform="translate(100 100)">
                <animate attributeType="XML" 
                    attributeName="d" 
                    dur="8s" 
                    repeatCount="indefinite" 
                    values="
                    M81.2,30.5C97,0.6,136.1-6,153.9,6.2c20.4,14.1,25,33.4,50.5,40.7c17.3,4.9,22.1-0.3,46.6-4.1c19-3,41.3-0.7,50.7,20.8
		c11.7,26.6-2.6,50.4-23.6,67.9c-6.2,5.1-16.9,24.3-19.5,32.9c-3,10.2-1,22.4-1.2,33.8c-0.3,17.2-6.5,32.9-15.5,43.5
		c-26.1,30.7-73.3,25.4-90.8,5.9c-8.2-9.2-14.1-22.4-23.4-28.8c-8-5.5-17-4.9-25.3-3.4C89,217.9,10.7,236.3,0.6,172.3
		c-2.4-15.5,1.9-44.7,36.8-64C80.5,84.4,70.3,51.3,81.2,30.5z;
                    M81.2,30.5C97.9,8.4,133.5,1.5,153.9,6.2s23.4,30,49.8,31.5s43.9-5,61.4-1.9c16.9,3,35.5,18.5,38,36.1
		c3.6,25-4.9,42.5-19.6,60.6c-8.7,10.7-16.6,18.4-18.8,32.4s-2.3,27.1-2.6,42.5s-8.7,27.5-26,41c-17.3,13.6-72,10.6-85-0.9
		c-12.9-11.5-16.7-17.5-26.9-21.3s-16.9-5.3-38.8-4.5c-21.8,0.8-68.9,13.2-79.8-41c-3.1-15.3,4.6-40,31.7-72.5S64.6,52.7,81.2,30.5z;
                    M23,76.9c23.7-20,53.8-19.6,67.8-34.6S106.2,20.8,131.4,8s62.6-5.2,78.7-0.8c15.1,4.1,27.1,16.2,33.5,28.2
		c4.7,8.8,10.9,23,24.5,34.3c13.6,11.3,23,14.7,28.6,26s9.8,25.6,7.5,48.6s-36.1,26.7-63.6,52.3s-26.4,59.1-55.3,65.1
		c-29,6-62.5-3.4-78.3-10.9s-26.4-16.6-35.8-29s-6-25.6-23.7-40.3c-17.7-14.7-38.8-14.3-44-38.8C-1.5,119.9,4.8,92.2,23,76.9z;
                    M30.5,63C22,36.4,39.2,11.4,80.2,13.3c27.5,1.3,39.4,22.2,76.8,16.6c37.3-5.6,45.9-13.6,80.9-21.1
		c31.8-6.8,49,8.4,56.1,21.8c7.5,14.3,7.5,27.5,3.6,42.7c-4,15.2-18.8,35.2-23.9,60s17.3,29.3,23.7,59.5c6,28.2-3.8,44-27.5,54.2
		c-23.7,10.2-49.3,1.5-74.9-8.7c-23.6-9.4-44.2-7.8-65.9,3c-21.8,10.9-51.2,16-82.3,16.6c-31.1,0.6-46.3-14.7-44.6-48
		s18.6-52,23.7-80.2S39,89.5,30.5,63z;
                    M81.2,30.5C97,0.6,136.1-6,153.9,6.2c20.4,14.1,25,33.4,50.5,40.7c17.3,4.9,22.1-0.3,46.6-4.1c19-3,41.3-0.7,50.7,20.8
		c11.7,26.6-2.6,50.4-23.6,67.9c-6.2,5.1-16.9,24.3-19.5,32.9c-3,10.2-1,22.4-1.2,33.8c-0.3,17.2-6.5,32.9-15.5,43.5
		c-26.1,30.7-73.3,25.4-90.8,5.9c-8.2-9.2-14.1-22.4-23.4-28.8c-8-5.5-17-4.9-25.3-3.4C89,217.9,10.7,236.3,0.6,172.3
		c-2.4-15.5,1.9-44.7,36.8-64C80.5,84.4,70.3,51.3,81.2,30.5z
                    " />
            </path>
        </svg>