<?xml version="1.0" encoding="utf-8"?>
<!-- Generator: Adobe Illustrator 28.0.0, SVG Export Plug-In . SVG Version: 6.00 Build 0)  -->
<svg version="1.1" id="_x32_" xmlns="http://www.w3.org/2000/svg" xmlns:xlink="http://www.w3.org/1999/xlink" x="0px" y="0px"
	 viewBox="0 0 60 60" style="enable-background:new 0 0 60 60;" xml:space="preserve">
<style type="text/css">
	.st0{fill:#00D2D2;}
</style>
<g>
	<g>
		<path class="st0" d="M57.3,25.4c-3.3-3.6-5.1-8.7-5.1-8.7s-1.8,5.1-5.1,8.7c0,0,1.5,0.8,2.3,0.4c0,0-0.8,3.1-4.5,7.3
			c3.3,0.9,5.7-0.6,5.7-0.6V37h1.2h0.7h1.2v-4.5c0,0,2.4,1.5,5.7,0.6c-3.7-4.1-4.5-7.3-4.5-7.3C55.8,26.2,57.3,25.4,57.3,25.4z"/>
		<path d="M53.8,37.5h-3.1c-0.3,0-0.5-0.2-0.5-0.5v-3.7c-1,0.4-3,0.9-5.3,0.3c-0.2,0-0.3-0.2-0.3-0.3s0-0.3,0.1-0.5
			c2.5-2.8,3.7-5.2,4.1-6.4c-0.8,0-1.7-0.5-1.8-0.5c-0.1-0.1-0.2-0.2-0.3-0.3c0-0.1,0-0.3,0.1-0.4c3.2-3.5,5-8.5,5-8.6
			c0.1-0.4,0.8-0.4,0.9,0c0,0,1.8,5.1,5,8.6c0.1,0.1,0.1,0.3,0.1,0.4c0,0.1-0.1,0.3-0.3,0.3c-0.1,0.1-1,0.5-1.8,0.5
			c0.5,1.1,1.6,3.5,4.1,6.4C60,32.8,60,33,60,33.2c0,0.2-0.2,0.3-0.3,0.3c-2.4,0.7-4.3,0.1-5.3-0.3V37
			C54.3,37.2,54.1,37.5,53.8,37.5z M51.2,36.5h2.1v-4c0-0.2,0.1-0.3,0.3-0.4c0.2-0.1,0.3-0.1,0.5,0c0,0,1.9,1.1,4.5,0.7
			c-3.2-3.9-4-6.7-4.1-6.9c0-0.2,0-0.4,0.2-0.5c0.1-0.1,0.4-0.1,0.5-0.1c0.3,0.1,0.8,0,1.3-0.1c-2.1-2.5-3.6-5.6-4.3-7.2
			c-0.7,1.6-2.1,4.7-4.3,7.2c0.5,0.2,1,0.3,1.3,0.1c0.2-0.1,0.4-0.1,0.5,0.1c0.1,0.1,0.2,0.3,0.2,0.5c0,0.1-0.8,3-4.1,6.9
			c2.6,0.4,4.5-0.7,4.5-0.7c0.2-0.1,0.3-0.1,0.5,0c0.2,0.1,0.3,0.3,0.3,0.4V36.5z"/>
	</g>
	<g>
		<path class="st0" d="M37.9,37c-15.9-2.2-19.1-2.7-13-6.6c4.5-2.9,14.5-5.1,19.7-6.8h-5.9V2h-2.8v21.6H34c-7.4,1.4-14,2.7-19.1,5
			c1,2.1,2.5,4.6,4.4,6.7l2.8,3.1l-3.7,1.9c0.3,0.4,0.6,0.9,0.9,1.5c8.5,2.2,16,3,9.5,6.5c-8.1,4.5-13.5,7.6-18.2,9.7h36.1
			c3.6-2.8,10-7.9,11-11.1C59.2,42.4,54.4,39.3,37.9,37z"/>
		<path d="M46.8,58.5H10.7c-0.2,0-0.4-0.2-0.5-0.4c0-0.2,0.1-0.5,0.3-0.6c4-1.8,8.6-4.3,14.9-7.8l3.3-1.8c2-1.1,2.2-1.7,2.2-1.9
			c-0.1-1-4-1.9-7.7-2.7c-1.2-0.3-2.6-0.6-3.9-0.9c-0.1,0-0.2-0.1-0.3-0.2c-0.3-0.5-0.7-1-0.9-1.5c-0.1-0.1-0.1-0.3,0-0.4
			c0-0.1,0.1-0.2,0.2-0.3l3.1-1.6l-2.4-2.7c-1.6-1.8-3.1-4.1-4.5-6.8c-0.1-0.1-0.1-0.3,0-0.4c0-0.1,0.1-0.2,0.3-0.3
			c5.1-2.3,11.5-3.6,19-5l0.2,0l1.5,0V2c0-0.3,0.2-0.5,0.5-0.5h2.8c0.3,0,0.5,0.2,0.5,0.5v21.1h5.4c0.2,0,0.4,0.2,0.5,0.4
			c0,0.2-0.1,0.5-0.3,0.5c-1.4,0.5-3.3,1-5.2,1.5c-5,1.4-11.1,3.1-14.3,5.2c-2.3,1.5-2.7,2.2-2.7,2.5c0.3,1.2,6.6,2,15.5,3.2l0,0
			c11.8,1.6,18,3.7,19.9,6.7c0.7,1.1,0.8,2.4,0.4,3.8c-1.1,3.3-7.4,8.5-11.2,11.4C47,58.5,46.9,58.5,46.8,58.5z M12.9,57.5h33.7
			c6.1-4.7,10-8.6,10.7-10.8c0.4-1.1,0.3-2.1-0.3-3c-1.7-2.7-7.8-4.7-19.2-6.2c-12.1-1.6-15.9-2.2-16.3-4c-0.2-1.1,1.1-2.2,3.1-3.5
			c3.3-2.2,9.6-3.9,14.6-5.3c0.7-0.2,1.4-0.4,2-0.6h-2.6c-0.3,0-0.5-0.2-0.5-0.5V2.5h-1.9v21.1c0,0.3-0.2,0.5-0.5,0.5l-2,0
			c-7.1,1.4-13.4,2.6-18.3,4.7c1.3,2.5,2.7,4.5,4.1,6.1l2.8,3.1c0.1,0.1,0.1,0.3,0.1,0.4c0,0.1-0.1,0.3-0.3,0.3l-3.2,1.7
			c0.2,0.3,0.3,0.5,0.5,0.8c1.3,0.3,2.5,0.6,3.7,0.9c4.9,1.2,8.2,1.9,8.4,3.6c0.1,0.9-0.7,1.8-2.7,2.9l-3.3,1.8
			C20.5,53.5,16.5,55.8,12.9,57.5z"/>
	</g>
	<g>
		<path class="st0" d="M12.2,46.9c0,0,3.3,2,7.6,0.8c-4.9-5.5-6-9.7-6-9.7c1.1,0.5,3.1-0.5,3.1-0.5c-4.3-4.8-6.7-11.6-6.7-11.6
			s-2.4,6.8-6.7,11.6c0,0,2,1,3.1,0.5c0,0-1.1,4.2-6,9.7c4.3,1.2,7.6-0.8,7.6-0.8v6h1.6h1h1.6L12.2,46.9L12.2,46.9z"/>
		<path d="M12.2,53.3H8.1c-0.3,0-0.5-0.2-0.5-0.5v-5.2c-1.2,0.5-3.9,1.4-7.2,0.5c-0.2,0-0.3-0.2-0.3-0.3c0-0.2,0-0.3,0.1-0.5
			c3.5-4,5-7.3,5.6-8.7c0,0,0,0,0,0c-1.1,0-2.3-0.6-2.5-0.7c-0.1-0.1-0.2-0.2-0.3-0.3c0-0.1,0-0.3,0.1-0.4
			c4.2-4.7,6.6-11.4,6.6-11.5c0.1-0.2,0.3-0.3,0.5-0.3l0,0c0.2,0,0.4,0.1,0.5,0.3c0,0.1,2.4,6.7,6.6,11.5c0.1,0.1,0.1,0.3,0.1,0.4
			c0,0.1-0.1,0.3-0.3,0.3c-0.2,0.1-1.4,0.7-2.6,0.7c0.5,1.4,2.1,4.7,5.6,8.7c0.1,0.1,0.2,0.3,0.1,0.5c0,0.2-0.2,0.3-0.3,0.3
			c-3.3,0.9-6,0.1-7.2-0.5l0,5.2c0,0.1-0.1,0.3-0.1,0.3C12.4,53.3,12.3,53.3,12.2,53.3z M8.6,52.4h3.1v-5.5c0-0.2,0.1-0.3,0.3-0.4
			c0.2-0.1,0.3-0.1,0.5,0c0,0,2.7,1.6,6.4,0.9c-4.4-5.2-5.5-9.1-5.5-9.3c0-0.2,0-0.4,0.2-0.5s0.4-0.1,0.5-0.1c0.5,0.2,1.3,0,2-0.2
			c-3.1-3.6-5.1-8-5.9-10.1c-0.9,2.1-2.9,6.5-5.9,10.1c0.7,0.3,1.6,0.5,2,0.2c0.2-0.1,0.4-0.1,0.5,0.1c0.1,0.1,0.2,0.3,0.2,0.5
			c0,0.2-1.1,4-5.5,9.3c3.7,0.7,6.4-0.9,6.4-0.9c0.2-0.1,0.3-0.1,0.5,0c0.2,0.1,0.3,0.3,0.3,0.4V52.4z"/>
	</g>
	<g>
		<path class="st0" d="M53.8,12.4c0.1-0.2,0.1-0.4,0-0.5L51,7.6c-0.1-0.2-0.1-0.4,0-0.6l2.8-4.3c0.1-0.2,0.1-0.4,0-0.5
			C53.7,2.1,53.6,2,53.4,2H40.1v10.7h13.3C53.6,12.7,53.7,12.6,53.8,12.4z"/>
		<path d="M53.4,13.2H40.1c-0.3,0-0.5-0.2-0.5-0.5V2c0-0.3,0.2-0.5,0.5-0.5h13.3c0.4,0,0.7,0.2,0.9,0.5c0.2,0.3,0.2,0.7,0,1
			l-2.8,4.3l2.8,4.3c0.2,0.3,0.2,0.7,0,1c0,0,0,0,0,0C54.1,13,53.7,13.2,53.4,13.2z M40.6,12.2h12.8l0.4,0.2l-0.4-0.2c0,0,0,0,0,0
			l-2.8-4.3c-0.2-0.3-0.2-0.8,0-1.1l2.8-4.3l-12.8,0V12.2z"/>
	</g>
</g>
</svg>
