<?xml version="1.0" encoding="utf-8"?>
<!-- Generator: Adobe Illustrator 28.0.0, SVG Export Plug-In . SVG Version: 6.00 Build 0)  -->
<svg version="1.1" id="レイヤー_1" xmlns="http://www.w3.org/2000/svg" xmlns:xlink="http://www.w3.org/1999/xlink" x="0px"
	 y="0px" viewBox="0 0 2094 171" style="enable-background:new 0 0 2094 171;" xml:space="preserve">
<style type="text/css">
	.st0{fill:#00D2D2;}
	.st1{fill:#BA0789;}
</style>
<g>
	<g>
		<polygon class="st0" points="100.3,168.2 100.3,103.9 44.5,103.9 44.5,168.2 0.5,168.2 0.5,5.1 44.5,5.1 44.5,65.7 100.3,65.7 
			100.3,5.1 144.3,5.1 144.3,168.2 		"/>
		<path d="M1,5.6l43,0l0,59.5v1h1l54.9,0h1l0-1l0-59.5l43,0l0,162.1l-43,0l0-63.2v-1h-1l-54.9,0h-1v1l0,63.2l-43,0L1,5.6 M0,4.6
			l0,164.1l45,0l0-64.2l54.9,0l0,64.2l45,0l0-164.1l-45,0l0,60.5l-54.9,0l0-60.5L0,4.6L0,4.6z"/>
	</g>
	<g>
		<path class="st1" d="M170.4,168.2V47.6h42.8v120.5H170.4z M170.4,36.5v-36h42.8v36H170.4z"/>
		<path d="M212.8,1v35l-41.8,0l0-35H212.8 M170.9,48.1l41.8,0l0,119.5l-41.8,0L170.9,48.1 M213.8,0h-43.8l0,37l43.8,0V0L213.8,0z
			 M169.9,47.1l0,121.5l43.8,0l0-121.5L169.9,47.1L169.9,47.1z"/>
	</g>
	<g>
		<path class="st0" d="M236.4,168.2V49.3h39.1v23l0.9-1.8c4.2-8.1,9.6-14.3,16-18.7c6.3-4.3,13.2-6.5,20.2-6.5h3.6
			c0.5,0,1,0,1.5,0.1v38.6c-8.3,0-15.9,1-22.7,2.8c-7,1.9-12.3,5-15.7,9.4l-0.1,0.1v71.8H236.4z"/>
		<path d="M312.7,45.8L312.7,45.8l3.6,0c0.3,0,0.6,0,1,0.1l0,37.7c-8.1,0.1-15.6,1-22.3,2.8c-7.1,1.9-12.5,5.1-16,9.6l-0.2,0.3v0.3
			l0,71.1l-41.8,0l0-117.9l38.1,0l0,20.5v4l1.9-3.6c4.2-8,9.5-14.2,15.8-18.5C299,48,305.7,45.8,312.7,45.8 M312.7,44.8
			c-7.2,0-14.1,2.2-20.5,6.6c-6.5,4.4-11.8,10.7-16.1,18.8l0-21.5l-40.1,0l0,119.9l43.8,0l0-72.1c3.4-4.3,8.5-7.4,15.5-9.2
			c6.9-1.8,14.6-2.8,23.1-2.8l0-39.5c-0.6-0.2-1.3-0.2-2-0.2C315.6,44.8,314.4,44.8,312.7,44.8L312.7,44.8z"/>
	</g>
	<g>
		<path class="st1" d="M391.5,170.5c-10.6,0-20.2-1.7-28.4-5c-8.2-3.3-15.2-7.9-20.7-13.6c-5.5-5.8-9.8-12.4-12.6-19.7
			c-2.8-7.3-4.2-15.1-4.2-23.2c0-8.1,1.4-15.9,4.2-23.3c2.8-7.4,7-14,12.6-19.7c5.5-5.7,12.5-10.2,20.7-13.5c8.2-3.3,17.8-5,28.4-5
			c10.8,0,20.4,1.7,28.5,5c8.1,3.3,15,7.8,20.6,13.5c5.5,5.7,9.8,12.3,12.6,19.7c2.8,7.4,4.2,15.3,4.2,23.3c0,8.1-1.4,15.9-4.2,23.2
			c-2.8,7.3-7,14-12.6,19.7c-5.5,5.8-12.5,10.3-20.6,13.6C411.9,168.8,402.3,170.5,391.5,170.5z M391.5,83.4c-4.2,0-8,1-11.3,3.1
			c-3.3,2-5.9,5-7.8,8.9c-1.9,3.8-2.8,8.4-2.8,13.6c0,5.2,0.9,9.8,2.8,13.6c1.9,3.8,4.5,6.8,7.8,8.9c3.3,2,7.1,3.1,11.3,3.1
			s8-1,11.3-3.1c3.3-2,5.9-5,7.8-8.9c1.9-3.8,2.8-8.4,2.8-13.6c0-5.2-0.9-9.8-2.8-13.6c-1.9-3.8-4.5-6.8-7.8-8.9
			C399.6,84.4,395.8,83.4,391.5,83.4z"/>
		<path d="M391.5,46.9v1c10.7,0,20.3,1.7,28.3,4.9c8.1,3.3,14.9,7.8,20.4,13.4c5.5,5.6,9.7,12.2,12.5,19.5
			c2.8,7.4,4.2,15.2,4.2,23.2c0,8-1.4,15.8-4.2,23.1c-2.8,7.3-7,13.8-12.5,19.5c-5.5,5.7-12.4,10.3-20.4,13.5
			c-8.1,3.3-17.6,4.9-28.3,4.9c-10.6,0-20.1-1.7-28.2-4.9c-8.1-3.3-15-7.8-20.5-13.5c-5.5-5.7-9.7-12.3-12.5-19.5
			c-2.8-7.3-4.2-15-4.2-23.1c0-8,1.4-15.8,4.2-23.2c2.8-7.3,7-13.9,12.5-19.5c5.5-5.6,12.4-10.1,20.5-13.4
			c8.1-3.3,17.6-4.9,28.2-4.9V46.9 M391.5,135c4.3,0,8.2-1.1,11.6-3.1c3.4-2.1,6.1-5.1,8-9.1c1.9-3.9,2.9-8.6,2.9-13.9
			c0-5.3-1-10-2.9-13.9c-1.9-3.9-4.6-7-8-9.1c-3.4-2.1-7.3-3.1-11.6-3.1c-4.3,0-8.2,1.1-11.6,3.1c-3.4,2.1-6.1,5.1-8,9.1
			c-1.9,3.9-2.9,8.6-2.9,13.9c0,5.3,1,10,2.9,13.9c1.9,3.9,4.6,7,8,9.1C383.3,134,387.2,135,391.5,135 M391.5,46.9
			c-10.8,0-20.3,1.7-28.6,5c-8.3,3.3-15.3,7.9-20.9,13.6c-5.6,5.8-9.8,12.4-12.7,19.9c-2.8,7.5-4.3,15.3-4.3,23.5
			c0,8.2,1.4,16,4.3,23.4c2.8,7.4,7.1,14.1,12.7,19.9c5.6,5.8,12.6,10.4,20.9,13.7c8.3,3.3,17.8,5,28.6,5c10.9,0,20.5-1.7,28.7-5
			c8.2-3.3,15.1-7.9,20.8-13.7c5.6-5.8,9.8-12.5,12.7-19.9c2.8-7.4,4.3-15.2,4.3-23.4c0-8.2-1.4-16-4.3-23.5
			c-2.8-7.5-7.1-14.1-12.7-19.9c-5.6-5.8-12.5-10.3-20.8-13.6C412,48.6,402.5,46.9,391.5,46.9L391.5,46.9z M391.5,134
			c-4.2,0-7.8-1-11.1-3s-5.8-4.9-7.6-8.7c-1.8-3.8-2.8-8.2-2.8-13.4c0-5.2,0.9-9.7,2.8-13.4c1.8-3.8,4.4-6.7,7.6-8.7
			c3.2-2,6.9-3,11.1-3c4.2,0,7.8,1,11.1,3c3.2,2,5.8,4.9,7.6,8.7c1.8,3.8,2.8,8.2,2.8,13.4c0,5.2-0.9,9.7-2.8,13.4
			c-1.8,3.8-4.4,6.7-7.6,8.7C399.4,133,395.7,134,391.5,134L391.5,134z"/>
	</g>
	<g>
		<path class="st0" d="M522.1,170.5c-10.5,0-21-1.7-31.1-5.2c-10-3.4-18.5-8.3-25.5-14.8l14.5-26.2c7.4,4.8,14.6,8.6,21.4,11.3
			c7,2.8,13.5,4.2,19.2,4.2c3.3,0,5.7-0.4,7.4-1.2c1.7-0.8,2.6-2.2,2.6-4.2c0-1.5-0.6-2.8-1.8-3.8c-1.1-1-2.9-1.9-5.3-2.8
			c-2.4-0.9-5.5-1.9-9.1-3c-9.4-3.3-17.5-6.4-23.8-9.3c-6.3-2.8-11-6.3-14.1-10.4c-3.1-4-4.6-9.6-4.6-16.4c0-8,2.1-15.2,6.1-21.4
			c4.1-6.2,10-11.1,17.7-14.7c7.7-3.6,17-5.4,27.8-5.4c8.1,0,16.3,1.3,24.4,3.8c8,2.5,15.9,7,23.4,13.4l-16.1,26
			c-7.5-4.6-13.9-8-19.1-9.9c-5.3-2-10.2-3-14.4-3c-2,0-3.8,0.2-5.3,0.7c-1.5,0.5-2.8,1.2-3.6,2.2c-0.8,1-1.3,2.3-1.3,3.9
			c0,1.6,0.6,3,1.8,4.1c1.1,1,2.9,2,5.2,2.8c2.3,0.8,5.3,1.8,8.8,2.8c10.4,3,19,6.1,25.5,9.1c6.5,3,11.4,6.7,14.4,11
			c3.1,4.3,4.6,9.9,4.6,16.8c0,12.3-4.5,22-13.3,28.9C549.7,167,537.4,170.5,522.1,170.5z"/>
		<path d="M523.4,47.9c8,0,16.2,1.3,24.3,3.8c7.8,2.4,15.5,6.8,22.9,13l-15.6,25.2c-7.4-4.5-13.7-7.8-18.8-9.7
			c-5.4-2-10.3-3.1-14.5-3.1c-2.1,0-3.9,0.2-5.5,0.7c-1.6,0.5-2.9,1.3-3.8,2.3c-0.9,1.1-1.4,2.5-1.4,4.3c0,1.8,0.7,3.3,1.9,4.5
			c1.2,1.1,3,2,5.4,2.9c2.3,0.8,5.3,1.8,8.8,2.8c10.4,3,18.9,6,25.4,9.1c6.4,3,11.2,6.6,14.3,10.8c3,4.2,4.5,9.7,4.5,16.5
			c0,12.1-4.4,21.7-13.1,28.5c-8.8,6.9-20.9,10.4-36.2,10.4c-10.4,0-20.9-1.7-30.9-5.1c-9.8-3.3-18.2-8.2-25-14.4l14.1-25.4
			c7.2,4.7,14.3,8.4,21.1,11.1c7.1,2.8,13.6,4.2,19.4,4.2c3.4,0,5.9-0.4,7.6-1.2c1.9-0.9,2.9-2.5,2.9-4.7c0-1.7-0.7-3.1-2-4.2
			c-1.2-1-3-1.9-5.5-2.9c-2.4-0.9-5.5-1.9-9.2-3c-9.4-3.3-17.4-6.4-23.8-9.3c-6.2-2.8-10.9-6.2-13.9-10.2c-3-4-4.5-9.4-4.5-16.1
			c0-7.9,2-15,6.1-21.1c4-6.1,9.9-11,17.5-14.5C503.4,49.7,512.7,47.9,523.4,47.9 M523.4,46.9c-10.9,0-20.3,1.8-28,5.4
			c-7.8,3.6-13.7,8.6-17.9,14.9c-4.2,6.3-6.2,13.5-6.2,21.7c0,7,1.6,12.5,4.7,16.7c3.1,4.2,7.9,7.7,14.3,10.5
			c6.4,2.9,14.3,6,23.9,9.3c3.7,1.1,6.7,2,9.1,3c2.4,0.9,4.1,1.8,5.2,2.7c1.1,0.9,1.6,2,1.6,3.4c0,1.8-0.8,3-2.3,3.8
			c-1.5,0.7-3.9,1.1-7.1,1.1c-5.7,0-12-1.4-19-4.2c-7-2.8-14.3-6.6-21.8-11.6l-15,27c7.1,6.6,15.7,11.7,25.9,15.1
			c10.2,3.5,20.6,5.2,31.2,5.2c15.5,0,27.8-3.5,36.8-10.6c9-7.1,13.5-16.8,13.5-29.3c0-7.1-1.6-12.8-4.7-17.1
			c-3.2-4.4-8-8.1-14.6-11.2c-6.6-3.1-15.1-6.1-25.6-9.1c-3.5-1.1-6.5-2-8.8-2.8c-2.3-0.8-4-1.7-5.1-2.7c-1.1-1-1.6-2.2-1.6-3.7
			c0-1.5,0.4-2.7,1.2-3.6c0.8-0.9,1.9-1.6,3.3-2c1.5-0.5,3.2-0.7,5.2-0.7c4.2,0,8.9,1,14.2,3c5.3,2,11.8,5.4,19.5,10.2l16.6-26.8
			c-7.7-6.6-15.6-11.2-23.9-13.7C539.8,48.2,531.6,46.9,523.4,46.9L523.4,46.9z"/>
	</g>
	<g>
		<path class="st1" d="M667.6,168.2V102c0-6-1.4-10.4-4.2-13.1c-2.8-2.7-6.3-4.1-10.4-4.1c-1.9,0-4.3,0.7-7,2
			c-2.7,1.3-5.4,3.3-7.9,5.8c-2.5,2.5-4.5,5.5-5.9,8.9l0,0.1v66.6h-42.8V0.5h42.8v68.1l0.9-1.4c4.2-6.4,9.9-11.4,16.8-14.7
			c6.9-3.4,14.6-5.1,23-5.1c8.5,0,15.3,1.4,20.3,4.1c5,2.7,8.7,6.3,11.1,10.6c2.4,4.3,4.1,9,4.9,13.9c0.8,5,1.3,9.7,1.3,14v78.1
			H667.6z"/>
		<path d="M589.9,1l41.8,0l0,65.9v3.3l1.8-2.8c4.2-6.3,9.7-11.2,16.6-14.5c6.8-3.3,14.5-5,22.7-5c8.4,0,15.1,1.4,20,4.1
			c4.9,2.7,8.6,6.2,10.9,10.4c2.4,4.3,4,8.9,4.8,13.8c0.8,4.9,1.3,9.6,1.3,13.9l0,77.6l-41.8,0V102c0-6.1-1.5-10.6-4.3-13.5
			c-2.9-2.8-6.5-4.2-10.7-4.2c-2,0-4.4,0.7-7.2,2.1c-2.8,1.4-5.5,3.3-8,5.9c-2.5,2.6-4.6,5.6-6,9.1l-0.1,0.2v0.2v66h-41.8L589.9,1
			 M588.9,0l0,168.7h43.8v-67c1.4-3.4,3.3-6.3,5.8-8.7c2.5-2.5,5-4.4,7.7-5.7c2.7-1.3,5-2,6.8-2c4,0,7.3,1.3,10,3.9
			c2.7,2.6,4,6.9,4,12.7v66.7l43.8,0l0-78.6c0-4.4-0.4-9.1-1.3-14.1c-0.8-5-2.5-9.7-5-14.1c-2.5-4.4-6.2-8-11.3-10.8
			c-5.1-2.8-11.9-4.2-20.5-4.2c-8.5,0-16.2,1.7-23.2,5.1c-7,3.4-12.6,8.4-16.9,14.9l0-66.9L588.9,0L588.9,0z"/>
	</g>
	<g>
		<path class="st0" d="M732.6,168.2V47.6h42.8v120.5H732.6z M732.6,36.5v-36l42.8,0v36H732.6z"/>
		<path d="M774.9,1v35l-41.8,0V1H774.9 M733.1,48.1l41.8,0v119.5l-41.8,0L733.1,48.1 M775.9,0h-43.8l0,37l43.8,0V0L775.9,0z
			 M732.1,47.1l0,121.5l43.8,0V47.1L732.1,47.1L732.1,47.1z"/>
	</g>
	<g>
		<path class="st1" d="M950.3,168.2V102c0-6-1.2-10.4-3.7-13.1c-2.5-2.7-5.5-4.1-9-4.1c-3.5,0-7.3,1.6-11.4,4.8
			c-4,3.2-7.1,7.4-8.9,12.4l0,0.1l0,66.1h-42.8V102c0-6-1.2-10.4-3.7-13.1c-2.5-2.7-5.5-4.1-9-4.1c-3.5,0-7.3,1.6-11.4,4.7
			c-4.1,3.1-7.1,7.1-8.9,12l0,0.1v66.6h-42.8V49.3H837v19.3l0.9-1.4c4.2-6.4,10.1-11.3,17.5-14.7c7.4-3.4,16.4-5.1,26.5-5.1
			c9.8,0,17.3,2.1,22.3,6.2c5,4.2,8.3,8.9,10,14.1l0.3,1l0.6-0.9c4.2-6.4,10.1-11.5,17.6-15c7.4-3.6,15.9-5.4,25.1-5.4
			c7.9,0,14.2,1.4,18.9,4.2c4.7,2.8,8.2,6.5,10.5,10.9c2.3,4.5,3.9,9.2,4.7,14c0.8,4.9,1.1,9.4,1.1,13.4v78.1H950.3z"/>
		<path d="M882,46.9v1c9.7,0,17.1,2.1,22,6.1c4.9,4.1,8.2,8.8,9.8,13.8l0.6,2l1.2-1.7c4.2-6.3,10-11.3,17.4-14.9
			c7.4-3.6,15.8-5.4,24.9-5.4c7.8,0,14,1.4,18.6,4.2c4.6,2.8,8.1,6.4,10.4,10.7c2.3,4.4,3.9,9.1,4.6,13.9c0.8,4.9,1.1,9.4,1.1,13.4
			v77.6l-41.8,0V102c0-6.1-1.3-10.6-3.8-13.4c-2.6-2.8-5.7-4.3-9.4-4.3c-3.6,0-7.5,1.7-11.7,5c-4.1,3.3-7.2,7.5-9.1,12.6l-0.1,0.2
			v0.2v65.5l-41.8,0V102c0-6.1-1.3-10.6-3.8-13.4c-2.6-2.8-5.7-4.3-9.4-4.3c-3.6,0-7.5,1.6-11.7,4.8c-4.1,3.2-7.2,7.3-9.1,12.2
			l-0.1,0.2v0.2v66l-41.8,0l0-117.9l37.4,0v17.1v3.3l1.8-2.8c4.2-6.3,10-11.2,17.3-14.5c7.4-3.3,16.2-5,26.3-5V46.9 M882,46.9
			c-10.3,0-19.2,1.7-26.7,5.1c-7.5,3.4-13.5,8.4-17.8,14.9V48.8l-39.4,0l0,119.9l43.8,0v-67c1.8-4.8,4.8-8.7,8.8-11.8
			c4-3.1,7.7-4.6,11.1-4.6c3.4,0,6.3,1.3,8.6,3.9c2.4,2.6,3.6,6.9,3.6,12.7v66.7l43.8,0v-66.5c1.8-5,4.8-9,8.8-12.2
			c4-3.2,7.7-4.7,11.1-4.7c3.4,0,6.3,1.3,8.6,3.9c2.4,2.6,3.6,6.9,3.6,12.7v66.7l43.8,0V90.1c0-4.1-0.4-8.6-1.2-13.5
			c-0.8-4.9-2.3-9.7-4.7-14.2c-2.4-4.5-6-8.3-10.7-11.1c-4.8-2.9-11.1-4.3-19.1-4.3c-9.4,0-17.8,1.8-25.4,5.5
			c-7.5,3.6-13.5,8.7-17.8,15.2c-1.7-5.3-5.1-10.1-10.1-14.3C899.5,49,892,46.9,882,46.9L882,46.9z"/>
	</g>
	<g>
		<path class="st0" d="M1118.6,170.5c-7.7,0-13.6-1.4-17.6-4.2c-4-2.8-6.6-6.9-7.8-12.3l-1.1-5.4l-0.7,0.9
			c-5.3,6.8-11.5,12.1-18.5,15.7c-7,3.6-14.5,5.4-22.4,5.4c-7.9,0-15.1-1.7-21.4-4.9c-6.3-3.3-11.4-7.8-15-13.6
			c-3.6-5.7-5.5-12.2-5.5-19.4c0-7.9,2.2-14.9,6.6-20.9c4.4-6,10.6-10.8,18.4-14.3c7.8-3.4,16.9-5.2,26.9-5.2
			c4.7,0,9.2,0.4,13.4,1.1c4.2,0.8,7.8,1.9,10.8,3.4l0.7,0.4v-4.5c0-5.6-1.7-9.8-5.1-12.6c-3.4-2.7-8.9-4.1-16.3-4.1
			c-6.8,0-13.2,1.1-19.2,3.4c-5.8,2.2-11.9,5.4-18.2,9.6l-12.3-26.3c8-5.1,16.4-8.9,25.2-11.4c8.9-2.5,18.6-3.8,28.8-3.8
			c19,0,33.9,4.3,44.3,12.6c10.4,8.4,15.6,20.9,15.6,37.4v23c0,4.2,0.6,7.1,2,8.8c1.2,1.6,3.4,2.6,6.4,3v36.1
			c-3.4,0.7-6.6,1.3-9.6,1.6C1123.8,170.3,1121,170.5,1118.6,170.5z M1068.1,115c-5.3,0-9.9,1.3-13.5,3.8c-3.7,2.6-5.6,5.9-5.6,9.8
			c0,2.1,0.7,4.1,1.9,5.9c1.3,1.7,3.1,3.1,5.3,4.1c2.2,1,4.8,1.5,7.6,1.5c2.6,0,5.4-0.4,8.3-1.2c2.9-0.8,5.4-1.9,7.4-3.2
			c1.7-1.2,3.2-2.5,4.3-3.9c1.1-1.5,1.7-3,1.7-4.6v-8.9l-0.3-0.1c-2.5-0.9-5.3-1.6-8.5-2.2C1073.4,115.3,1070.6,115,1068.1,115z"/>
		<path d="M1068.3,47.9c18.9,0,33.7,4.2,44,12.5c10.2,8.3,15.4,20.7,15.4,37v23c0,4.3,0.7,7.3,2.1,9.1c1.3,1.6,3.4,2.7,6.2,3.1v35.3
			c-3.2,0.7-6.3,1.2-9.2,1.5c-3.1,0.4-5.9,0.6-8.3,0.6c-7.6,0-13.4-1.4-17.3-4.1c-3.8-2.7-6.4-6.7-7.5-12l-0.9-4.4l-0.4-2.1
			l-1.3,1.7c-5.3,6.8-11.4,12-18.3,15.6c-6.9,3.5-14.4,5.3-22.1,5.3c-7.8,0-14.9-1.6-21.2-4.9c-6.3-3.2-11.3-7.7-14.8-13.4
			c-3.6-5.6-5.4-12.1-5.4-19.1c0-7.8,2.2-14.7,6.5-20.6c4.3-6,10.4-10.7,18.2-14.1c7.8-3.4,16.7-5.1,26.7-5.1
			c4.7,0,9.2,0.4,13.3,1.1c4.1,0.8,7.7,1.9,10.7,3.4l1.4,0.7v-1.6v-3.7c0-5.8-1.8-10.1-5.3-13c-3.5-2.8-9.1-4.2-16.7-4.2
			c-6.8,0-13.4,1.1-19.4,3.4c-5.7,2.1-11.6,5.3-17.8,9.3l-11.8-25.4c7.8-4.9,16.1-8.7,24.7-11.1
			C1048.5,49.2,1058.2,47.9,1068.3,47.9 M1063.7,140.6c2.7,0,5.5-0.4,8.5-1.2c2.9-0.8,5.5-1.9,7.6-3.3c1.8-1.2,3.2-2.6,4.4-4
			c1.2-1.6,1.8-3.2,1.8-4.9v-8.5v-0.7l-0.7-0.2c-2.5-0.9-5.4-1.6-8.6-2.2c-3.2-0.6-6.1-0.9-8.6-0.9c-5.4,0-10.1,1.3-13.8,3.9
			c-3.9,2.7-5.9,6.1-5.9,10.2c0,2.2,0.7,4.3,2,6.2c1.3,1.8,3.2,3.2,5.5,4.3C1058.2,140.1,1060.8,140.6,1063.7,140.6 M1068.3,46.9
			c-10.3,0-19.9,1.3-28.9,3.8c-9,2.5-17.6,6.4-25.7,11.7l12.7,27.3c6.5-4.3,12.6-7.6,18.6-9.8c5.9-2.2,12.3-3.4,19-3.4
			c7.4,0,12.7,1.3,16,4c3.3,2.7,5,6.7,5,12.2v3.7c-3.1-1.5-6.7-2.7-11-3.5c-4.2-0.8-8.7-1.2-13.5-1.2c-10.1,0-19.2,1.7-27.1,5.2
			c-7.9,3.5-14.1,8.3-18.6,14.4c-4.5,6.1-6.7,13.2-6.7,21.2c0,7.3,1.8,13.8,5.5,19.6c3.7,5.8,8.8,10.4,15.2,13.7
			c6.5,3.3,13.7,5,21.7,5c8,0,15.5-1.8,22.6-5.4c7.1-3.6,13.3-8.9,18.7-15.8l0.9,4.4c1.2,5.5,3.9,9.7,8,12.6
			c4.1,2.8,10,4.3,17.9,4.3c2.5,0,5.3-0.2,8.4-0.6c3.1-0.4,6.5-1,10-1.7v-37c-3.1-0.3-5.2-1.2-6.5-2.8c-1.2-1.6-1.8-4.4-1.8-8.5v-23
			c0-16.7-5.3-29.3-15.8-37.8C1102.4,51.2,1087.5,46.9,1068.3,46.9L1068.3,46.9z M1063.7,139.6c-2.8,0-5.2-0.5-7.4-1.4
			c-2.2-0.9-3.8-2.3-5.1-3.9c-1.2-1.7-1.8-3.5-1.8-5.6c0-3.8,1.8-6.9,5.4-9.4c3.6-2.5,8-3.7,13.3-3.7c2.5,0,5.3,0.3,8.4,0.9
			c3.1,0.6,6,1.3,8.4,2.2v8.5c0,1.5-0.5,2.9-1.6,4.3c-1.1,1.4-2.5,2.7-4.2,3.8c-2,1.3-4.4,2.4-7.3,3.2
			C1069.1,139.2,1066.3,139.6,1063.7,139.6L1063.7,139.6z"/>
	</g>
	<g>
		<path class="st1" d="M1302.8,168.2l-8.5-32.1h-47l-8.5,32.1H1194l52-163.1h49.5l51.8,163.1H1302.8z M1254.9,107h31.7l-15.9-60.2
			L1254.9,107z"/>
		<path d="M1246.4,5.6l48.8,0l51.5,162.1h-43.5l-8.3-31.4l-0.2-0.7h-0.8l-46.3,0h-0.8l-0.2,0.7l-8.3,31.4h-43.7L1246.4,5.6
			 M1286,107.5h1.3l-0.3-1.3l-15.2-57.8l-1-3.7l-1,3.7l-15.2,57.8l-0.3,1.3l1.3,0L1286,107.5 M1245.6,4.6l-52.3,164.1h45.9l8.5-32.1
			l46.3,0l8.5,32.1h45.7L1295.9,4.6L1245.6,4.6L1245.6,4.6z M1286,106.5l-30.4,0l15.2-57.8L1286,106.5L1286,106.5z"/>
	</g>
	<g>
		<rect x="1362.1" y="5.1" class="st0" width="44" height="163.1"/>
		<path d="M1362.6,5.6l43,0l0,162.1l-43,0V5.6 M1361.6,4.6v164.1l45,0l0-164.1L1361.6,4.6L1361.6,4.6z"/>
	</g>
	<g>
		<path class="st1" d="M1559.9,169.3c-12,0-23.2-2.4-33.1-7.2c-10-4.8-18.7-11.3-25.9-19.3c-7.2-8-12.9-17.1-16.9-27.1
			c-4-10-6-20.3-6-30.7c0-9.9,1.9-19.8,5.6-29.3c3.7-9.5,9.2-18.3,16.4-26.1c7.1-7.8,16-14.1,26.2-18.7c10.3-4.6,22-7,35-7
			c15.5,0,29.2,3.3,40.8,9.8c11.4,6.4,20,14.9,25.7,25.4L1594.3,63c-2-5.2-4.9-9.2-8.6-12.1c-3.8-3-8-5-12.4-6.2
			c-4.4-1.2-8.8-1.7-12.9-1.7c-6.5,0-12.2,1.3-17,3.9c-4.7,2.6-8.7,6-11.7,10.2c-3,4.2-5.3,8.9-6.8,14c-1.5,5.1-2.2,10.3-2.2,15.4
			c0,5.7,0.9,11.3,2.6,16.6c1.7,5.3,4.2,10,7.5,14.1c3.3,4.1,7.3,7.4,12,9.7c4.7,2.3,10.1,3.5,16,3.5c4.2,0,8.5-0.7,12.8-2
			c4.3-1.3,8.4-3.5,11.9-6.4c3.5-2.9,6.1-6.7,8-11.4l35.8,21.4c-3.2,7.7-8.5,14.4-15.8,20c-7.5,5.6-16,10-25.4,13
			C1578.7,167.8,1569.2,169.3,1559.9,169.3z"/>
		<path d="M1561.3,3.5v1c15.4,0,29.1,3.3,40.6,9.7c11.2,6.3,19.7,14.6,25.2,24.8l-32.6,23.2c-2-5-4.9-8.9-8.5-11.7
			c-3.9-3-8.1-5.1-12.6-6.3c-4.4-1.2-8.8-1.8-13.1-1.8c-6.6,0-12.4,1.3-17.2,3.9c-4.8,2.6-8.8,6.1-11.9,10.3
			c-3.1,4.2-5.4,9-6.8,14.2c-1.5,5.1-2.2,10.4-2.2,15.5c0,5.8,0.9,11.4,2.6,16.7c1.7,5.3,4.3,10.1,7.5,14.3
			c3.3,4.2,7.4,7.5,12.2,9.9c4.8,2.4,10.3,3.6,16.2,3.6c4.2,0,8.6-0.7,13-2c4.4-1.3,8.5-3.5,12.1-6.5c3.4-2.8,6-6.5,7.9-11.1
			l34.9,20.9c-3.2,7.5-8.4,14-15.5,19.4c-7.4,5.6-15.9,9.9-25.3,12.9c-9.4,3-18.8,4.5-28.1,4.5c-11.9,0-23-2.4-32.9-7.2
			c-9.9-4.8-18.6-11.2-25.7-19.2c-7.2-8-12.8-17-16.8-27c-3.9-9.9-5.9-20.2-5.9-30.5c0-9.8,1.9-19.6,5.6-29.1
			c3.7-9.5,9.2-18.2,16.3-25.9c7.1-7.7,15.9-14,26.1-18.6c10.2-4.6,21.9-7,34.8-7V3.5 M1561.3,3.5c-13.1,0-24.8,2.4-35.2,7
			c-10.4,4.7-19.2,11-26.4,18.8c-7.2,7.9-12.7,16.6-16.5,26.2c-3.8,9.6-5.6,19.5-5.6,29.5c0,10.5,2,20.8,6,30.8
			c4,10.1,9.6,19.2,16.9,27.3c7.3,8.1,16,14.6,26.1,19.4c10.1,4.9,21.2,7.3,33.3,7.3c9.4,0,18.8-1.5,28.4-4.5
			c9.5-3,18.1-7.4,25.6-13.1c7.5-5.7,12.9-12.6,16.1-20.6l-36.7-22c-1.8,4.9-4.5,8.9-8.1,11.8c-3.5,2.9-7.5,5-11.8,6.4
			c-4.3,1.3-8.5,2-12.7,2c-5.8,0-11.1-1.2-15.8-3.5c-4.7-2.3-8.6-5.5-11.9-9.6c-3.2-4.1-5.7-8.7-7.4-14c-1.7-5.2-2.5-10.7-2.5-16.4
			c0-5.1,0.7-10.2,2.2-15.3c1.5-5.1,3.7-9.7,6.7-13.9c3-4.2,6.8-7.5,11.5-10.1c4.7-2.5,10.3-3.8,16.7-3.8c4.2,0,8.4,0.6,12.8,1.7
			c4.4,1.2,8.5,3.2,12.2,6.1c3.8,2.9,6.6,7.1,8.6,12.5l34.4-24.5c-5.7-10.8-14.4-19.4-26.1-26C1590.7,6.7,1577,3.5,1561.3,3.5
			L1561.3,3.5z"/>
	</g>
	<g>
		<path class="st0" d="M1678.5,170.5c-11.5,0-20.5-3-26.6-9c-6.2-6-9.3-14.6-9.3-25.6l0-135.4h42.8v119.9c0,4.6,1,8.1,3,10.6
			c2,2.5,5,3.8,8.8,3.8c1.9,0,3.9-0.3,6.1-0.9c1.9-0.6,3.8-1.3,5.5-2.2l5.3,31.3c-5.1,2.4-10.9,4.2-17.2,5.6
			C1690.4,169.8,1684.2,170.5,1678.5,170.5z"/>
		<path d="M1643,1l41.8,0v119.4c0,4.7,1,8.4,3.1,10.9c2.1,2.6,5.2,4,9.2,4c1.9,0,4-0.3,6.3-1c1.7-0.5,3.4-1.2,5-2l5.2,30.2
			c-5,2.3-10.6,4.1-16.7,5.4c-6.4,1.4-12.6,2.1-18.4,2.1c-11.4,0-20.2-3-26.3-8.8c-6.1-5.9-9.1-14.4-9.1-25.3V1 M1642,0v135.9
			c0,11.2,3.1,19.9,9.5,26c6.3,6.1,15.3,9.1,27,9.1c5.8,0,12-0.7,18.6-2.1c6.5-1.4,12.4-3.3,17.6-5.8l-5.5-32.4
			c-1.8,1.1-3.8,1.9-6,2.5c-2.2,0.6-4.2,0.9-6,0.9c-3.7,0-6.5-1.2-8.4-3.6c-1.9-2.4-2.9-5.8-2.9-10.3V0L1642,0L1642,0z"/>
	</g>
	<g>
		<path class="st1" d="M1835.5,170.5c-7.3,0-13.1-1.4-17.3-4c-4.2-2.7-6.9-6.8-8.1-12.2l-1.1-5.4l-0.7,0.9
			c-5.6,7.3-12.4,12.7-20.2,15.9c-7.8,3.2-16.8,4.9-26.7,4.9c-11.9,0-21.2-3.7-27.6-11c-6.4-7.3-9.7-18-9.7-31.8V49.3h42.8v68.2
			c0,5.2,1.2,9.4,3.7,12.4c2.5,3.1,5.9,4.6,10.2,4.6c2.3,0,4.7-0.3,7-0.9c2.4-0.6,4.8-1.8,7.2-3.6c2.4-1.8,4.8-4.3,7.1-7.6l0.1-0.1
			V49.3h42.8v71.1c0,4.2,0.6,7.1,2,8.8c1.2,1.6,3.4,2.6,6.4,3v36.1c-3.7,0.7-7,1.3-9.9,1.6C1840.4,170.3,1837.7,170.5,1835.5,170.5z
			"/>
		<path d="M1724.7,49.8l41.8,0v67.7c0,5.4,1.3,9.6,3.8,12.8c2.6,3.2,6.1,4.8,10.6,4.8c2.4,0,4.8-0.3,7.2-0.9
			c2.4-0.6,4.9-1.8,7.4-3.7c2.5-1.8,4.9-4.4,7.3-7.7l0.2-0.3v-0.3l0-72.4l41.8,0v70.6c0,4.4,0.7,7.3,2.1,9.1
			c1.3,1.6,3.4,2.7,6.2,3.1v35.3c-3.5,0.7-6.7,1.2-9.5,1.6c-3,0.4-5.7,0.6-7.9,0.6c-7.2,0-12.9-1.3-17-4c-4.1-2.6-6.7-6.6-7.9-11.9
			l-0.9-4.3l-0.5-2.1l-1.3,1.7c-5.6,7.3-12.3,12.6-20,15.8c-7.8,3.2-16.7,4.8-26.5,4.8c-11.8,0-21-3.6-27.3-10.8
			c-6.3-7.2-9.6-17.8-9.6-31.5V49.8 M1723.7,48.8v78.9c0,14,3.3,24.7,9.8,32.2c6.5,7.5,15.9,11.2,28,11.2c10,0,18.9-1.6,26.9-4.9
			c7.9-3.3,14.7-8.6,20.4-16.1l0.9,4.3c1.2,5.6,4,9.8,8.3,12.5c4.3,2.7,10.1,4.1,17.5,4.1c2.3,0,5-0.2,8.1-0.6
			c3.1-0.4,6.5-1,10.4-1.7v-37c-3.1-0.3-5.2-1.2-6.5-2.8c-1.2-1.6-1.8-4.4-1.8-8.5V48.8l-43.8,0l0,73.4c-2.3,3.2-4.7,5.7-7,7.5
			c-2.4,1.8-4.7,2.9-7,3.5c-2.3,0.6-4.6,0.9-6.9,0.9c-4.2,0-7.4-1.5-9.8-4.4c-2.4-2.9-3.6-7-3.6-12.1V48.8L1723.7,48.8L1723.7,48.8z
			"/>
	</g>
	<g>
		<path class="st0" d="M1949.2,170.5c-8.9,0-16.8-1.8-23.3-5.4c-6.5-3.6-11.7-8.8-15.5-15.6l-0.9-1.7v20.4h-37V0.5l42.8,0v68.7
			l0.9-1.8c3.5-6.5,8.4-11.5,14.8-14.9c6.4-3.4,14-5.1,22.6-5.1c7.3,0,14.1,1.6,20.3,4.6c6.2,3.1,11.7,7.4,16.3,12.9
			c4.6,5.5,8.3,12.2,10.9,19.7c2.6,7.6,3.9,15.9,3.9,24.7c0,8.7-1.4,16.8-4.2,24.3c-2.8,7.4-6.7,14-11.7,19.5
			c-4.9,5.5-10.8,9.8-17.6,12.8C1964.7,169,1957.2,170.5,1949.2,170.5z M1938.3,83.4c-3.1,0-6.2,0.8-9.2,2.3c-3,1.5-5.7,3.6-8.1,6.2
			c-2.4,2.6-4.3,5.7-5.7,9.1l0,0.1v21.1l0.1,0.1c1.4,1.9,2.9,3.7,4.6,5.3c1.6,1.6,3.3,2.9,5.1,3.8c1.7,1,3.6,1.7,5.5,2.3
			c1.9,0.5,4,0.8,6,0.8c3.6,0,6.9-0.6,9.9-1.8c3-1.2,5.6-2.9,7.8-5.1c2.2-2.2,3.9-4.8,5.1-7.8c1.2-3,1.8-6.4,1.8-10.2
			c0-4.8-1-9.2-2.9-13.2c-2-4-4.6-7.2-8-9.5C1946.7,84.6,1942.7,83.4,1938.3,83.4z"/>
		<path d="M1914.7,1v66.2v4l1.9-3.5c3.4-6.4,8.3-11.4,14.6-14.7c6.3-3.4,13.8-5.1,22.4-5.1c7.2,0,13.9,1.5,20.1,4.6
			c6.1,3,11.6,7.3,16.2,12.8c4.6,5.5,8.2,12.1,10.8,19.6c2.6,7.5,3.9,15.8,3.9,24.6c0,8.6-1.4,16.7-4.2,24.1
			c-2.8,7.4-6.7,13.9-11.6,19.3c-4.9,5.5-10.7,9.7-17.4,12.7c-6.7,3-14.1,4.5-22.1,4.5c-8.9,0-16.6-1.8-23-5.3
			c-6.4-3.5-11.6-8.7-15.3-15.4l-1.9-3.4v3.9v17.9l-36,0V1H1914.7 M1936.5,135c3.7,0,7-0.6,10.1-1.8c3-1.2,5.7-3,7.9-5.2
			c2.2-2.2,4-4.9,5.2-8c1.2-3.1,1.8-6.5,1.8-10.4c0-4.9-1-9.4-3-13.4c-2-4.1-4.7-7.3-8.2-9.7c-3.5-2.4-7.5-3.6-12-3.6
			c-3.2,0-6.4,0.8-9.4,2.3c-3,1.5-5.8,3.7-8.2,6.3c-2.5,2.7-4.4,5.8-5.8,9.3l-0.1,0.2v0.2l0,20.9v0.3l0.2,0.3c1.4,2,3,3.8,4.6,5.4
			c1.7,1.6,3.4,2.9,5.2,3.9c1.8,1,3.7,1.8,5.7,2.3C1932.3,134.8,1934.4,135,1936.5,135 M1915.7,0h-43.8v168.7l38,0v-18.9
			c3.8,6.9,9.1,12.2,15.7,15.8c6.6,3.6,14.4,5.4,23.5,5.4c8.1,0,15.6-1.5,22.5-4.5c6.8-3,12.8-7.3,17.8-13c5-5.6,8.9-12.2,11.8-19.7
			c2.8-7.5,4.3-15.6,4.3-24.4c0-8.9-1.3-17.2-3.9-24.9c-2.6-7.7-6.3-14.3-11-19.9c-4.7-5.6-10.2-10-16.5-13.1
			c-6.3-3.1-13.1-4.7-20.5-4.7c-8.8,0-16.4,1.7-22.8,5.2c-6.5,3.5-11.5,8.5-15,15.1V0L1915.7,0z M1936.5,134c-2,0-4-0.3-5.9-0.8
			c-1.9-0.5-3.7-1.3-5.4-2.2c-1.7-1-3.3-2.2-5-3.8c-1.6-1.6-3.1-3.3-4.5-5.2l0-20.9c1.4-3.4,3.3-6.4,5.6-9c2.4-2.6,5-4.6,8-6.1
			c2.9-1.5,5.9-2.2,9-2.2c4.3,0,8.1,1.1,11.4,3.4c3.3,2.3,5.9,5.4,7.8,9.3c1.9,3.9,2.9,8.2,2.9,13c0,3.7-0.6,7-1.7,10
			c-1.2,3-2.8,5.5-5,7.7c-2.2,2.1-4.7,3.8-7.6,5C1943.3,133.4,1940,134,1936.5,134L1936.5,134z"/>
	</g>
</g>
</svg>
