<?xml version="1.0" encoding="utf-8"?>
<!-- Generator: Adobe Illustrator 28.0.0, SVG Export Plug-In . SVG Version: 6.00 Build 0)  -->
<svg version="1.1" id="レイヤー_1" xmlns="http://www.w3.org/2000/svg" xmlns:xlink="http://www.w3.org/1999/xlink" x="0px"
	 y="0px" viewBox="0 0 400 110" style="enable-background:new 0 0 400 110;" xml:space="preserve">
<style type="text/css">
	.st0{fill:#00D2D2;}
	.st1{fill:url(#SVGID_1_);}
	.st2{fill:url(#SVGID_00000180355223238191521990000012761888118927599511_);}
	.st3{fill:url(#SVGID_00000065787401514942222190000007283948632884847509_);}
	.st4{fill:url(#SVGID_00000065050202715566353150000015832679609738557620_);}
	.st5{fill:url(#SVGID_00000181073619596634814030000010560079136077460633_);}
	.st6{fill:url(#SVGID_00000168813751901917071880000010610544952915252925_);}
	.st7{fill:url(#SVGID_00000090252686976246891890000006174851018626846890_);}
	.st8{fill:#FFFFFF;}
</style>
<g>
	<path class="st0" d="M103.3,93.2v16.6h-3.8V103h-6.6v6.8h-3.8V93.2h3.8v6.4h6.6v-6.4H103.3z"/>
	<path class="st0" d="M107.5,96.1v-3.4h3.7v3.4H107.5z M107.5,109.8l0-12.3h3.7v12.3H107.5z"/>
	<path class="st0" d="M122.9,100.7c-0.9,0-1.7,0.1-2.5,0.4c-0.7,0.3-1.3,0.7-1.6,1.3v7.4h-3.7V97.7h3.4v2.3c0.4-0.8,1-1.5,1.7-1.9
		c0.7-0.5,1.4-0.7,2.1-0.7c0.2,0,0.3,0,0.4,0c0.1,0,0.2,0,0.2,0V100.7z"/>
	<path class="st0" d="M130.9,110c-1.1,0-2-0.2-2.8-0.5c-0.8-0.3-1.5-0.8-2.1-1.4c-0.6-0.6-1-1.3-1.3-2c-0.3-0.8-0.4-1.5-0.4-2.4
		c0-0.8,0.1-1.6,0.4-2.4c0.3-0.8,0.7-1.4,1.3-2c0.6-0.6,1.2-1,2.1-1.4c0.8-0.3,1.7-0.5,2.8-0.5c1,0,2,0.2,2.8,0.5
		c0.8,0.3,1.5,0.8,2.1,1.4c0.6,0.6,1,1.3,1.3,2c0.3,0.8,0.4,1.6,0.4,2.4c0,0.8-0.1,1.6-0.4,2.4c-0.3,0.8-0.7,1.4-1.3,2
		c-0.6,0.6-1.3,1.1-2.1,1.4C132.9,109.8,131.9,110,130.9,110z M128.2,103.7c0,0.6,0.1,1.1,0.4,1.6c0.2,0.5,0.6,0.8,1,1.1
		c0.4,0.3,0.9,0.4,1.4,0.4c0.5,0,1-0.1,1.4-0.4c0.4-0.3,0.7-0.6,1-1.1c0.2-0.5,0.4-1,0.4-1.6c0-0.6-0.1-1.2-0.4-1.6
		c-0.2-0.5-0.6-0.8-1-1.1c-0.4-0.3-0.9-0.4-1.4-0.4s-1,0.1-1.4,0.4c-0.4,0.3-0.7,0.6-1,1.1C128.3,102.6,128.2,103.1,128.2,103.7z"/>
	<path class="st0" d="M145.1,110c-1,0-2.1-0.2-3-0.5c-1-0.4-1.8-0.9-2.5-1.5l1.3-2.3c0.7,0.5,1.5,1,2.2,1.2c0.7,0.3,1.4,0.4,2,0.4
		c0.5,0,0.8-0.1,1.1-0.2c0.3-0.1,0.4-0.4,0.4-0.7c0-0.2-0.1-0.4-0.2-0.5c-0.2-0.1-0.4-0.2-0.7-0.4c-0.3-0.1-0.7-0.2-1.2-0.4
		c-0.9-0.3-1.7-0.6-2.3-0.9c-0.6-0.3-1.1-0.6-1.4-1.1s-0.5-1-0.5-1.6c0-0.8,0.2-1.5,0.6-2.1c0.4-0.6,1-1.1,1.8-1.4
		c0.8-0.3,1.7-0.5,2.7-0.5c0.8,0,1.7,0.1,2.5,0.4c0.8,0.3,1.6,0.7,2.3,1.4l-1.5,2.3c-0.7-0.5-1.3-0.8-1.9-1.1
		c-0.6-0.2-1.1-0.3-1.6-0.3c-0.3,0-0.5,0-0.7,0.1c-0.2,0.1-0.4,0.2-0.5,0.3c-0.1,0.1-0.2,0.3-0.2,0.6c0,0.2,0.1,0.4,0.2,0.5
		c0.1,0.1,0.3,0.3,0.6,0.4c0.3,0.1,0.6,0.2,1.1,0.3c1,0.3,1.9,0.6,2.6,0.9c0.7,0.3,1.2,0.7,1.5,1.1c0.3,0.4,0.5,1,0.5,1.7
		c0,1.2-0.5,2.2-1.4,2.9C147.9,109.7,146.6,110,145.1,110z"/>
	<path class="st0" d="M165.1,109.8h-3.7V103c0-0.8-0.2-1.4-0.5-1.7c-0.3-0.4-0.8-0.6-1.3-0.6c-0.3,0-0.6,0.1-1,0.3
		c-0.4,0.2-0.7,0.4-1,0.7c-0.3,0.3-0.5,0.7-0.7,1.1v6.9h-3.7v-17h3.7v7c0.5-0.7,1-1.3,1.8-1.7c0.7-0.4,1.6-0.6,2.5-0.6
		c0.8,0,1.5,0.1,2,0.4c0.5,0.3,0.9,0.6,1.2,1.1s0.4,0.9,0.5,1.5c0.1,0.5,0.2,1.1,0.2,1.6V109.8z"/>
	<path class="st0" d="M168.9,96.1v-3.4h3.7v3.4H168.9z M168.9,109.8V97.5h3.7v12.3H168.9z"/>
	<path class="st0" d="M195.8,109.8h-3.7V103c0-0.8-0.1-1.4-0.4-1.7c-0.3-0.4-0.7-0.6-1.2-0.6c-0.5,0-1,0.2-1.4,0.6
		c-0.5,0.4-0.8,0.9-1,1.6v6.9h-3.7V103c0-0.8-0.1-1.4-0.4-1.7c-0.3-0.4-0.7-0.5-1.1-0.5c-0.5,0-1,0.2-1.4,0.6
		c-0.5,0.4-0.8,0.9-1.1,1.5v6.9h-3.7V97.7h3.4v2.1c0.5-0.7,1.1-1.3,1.8-1.7c0.8-0.4,1.7-0.6,2.7-0.6c1,0,1.8,0.2,2.3,0.7
		c0.5,0.5,0.9,1,1,1.6c0.5-0.7,1.1-1.3,1.9-1.7c0.8-0.4,1.6-0.6,2.6-0.6c0.8,0,1.4,0.1,1.9,0.4c0.5,0.3,0.8,0.6,1.1,1.1
		c0.3,0.5,0.4,1,0.5,1.5c0.1,0.5,0.1,1,0.1,1.6V109.8z"/>
	<path class="st0" d="M198.8,106.1c0-0.8,0.2-1.5,0.7-2.1c0.5-0.6,1.1-1.1,1.9-1.4c0.8-0.3,1.7-0.5,2.7-0.5c0.5,0,1,0,1.5,0.1
		c0.5,0.1,0.9,0.2,1.3,0.4v-0.5c0-0.7-0.2-1.2-0.6-1.5c-0.4-0.3-1-0.5-1.8-0.5c-0.7,0-1.3,0.1-1.9,0.4c-0.6,0.2-1.2,0.6-1.9,1
		l-1.1-2.4c0.8-0.5,1.7-0.9,2.5-1.2c0.9-0.3,1.8-0.4,2.8-0.4c1.8,0,3.3,0.4,4.3,1.3c1,0.9,1.5,2.1,1.5,3.8v3.1
		c0,0.4,0.1,0.6,0.2,0.8c0.1,0.2,0.3,0.2,0.6,0.3v3.1c-0.3,0.1-0.6,0.1-0.9,0.2c-0.3,0-0.5,0-0.7,0c-0.7,0-1.2-0.1-1.6-0.4
		c-0.4-0.3-0.6-0.7-0.7-1.1l-0.1-0.5c-0.5,0.7-1.2,1.2-1.9,1.6c-0.8,0.4-1.5,0.5-2.4,0.5c-0.8,0-1.5-0.2-2.2-0.5
		c-0.6-0.3-1.2-0.8-1.5-1.4C199,107.5,198.8,106.9,198.8,106.1z M206.2,106.6c0.2-0.1,0.3-0.3,0.4-0.5c0.1-0.2,0.2-0.3,0.2-0.5v-1.1
		c-0.3-0.1-0.7-0.2-1.1-0.3c-0.4-0.1-0.7-0.1-1.1-0.1c-0.7,0-1.2,0.2-1.7,0.5c-0.5,0.3-0.7,0.7-0.7,1.2c0,0.3,0.1,0.5,0.2,0.7
		c0.2,0.2,0.4,0.4,0.6,0.5c0.3,0.1,0.6,0.2,1,0.2c0.4,0,0.7-0.1,1.1-0.2C205.7,107,206,106.8,206.2,106.6z"/>
	<path class="st0" d="M226.9,93.2h4.1l5.7,16.6h-3.9l-1.1-3.7h-5.5l-1.1,3.7h-3.9L226.9,93.2z M230.9,103.4L229,97l-1.9,6.4H230.9z"
		/>
	<path class="st0" d="M239.6,109.8V93.2h3.8v16.6L239.6,109.8z"/>
	<path class="st0" d="M254.9,101.3c0-1,0.2-2,0.5-3c0.4-1,0.9-1.9,1.6-2.7c0.7-0.8,1.6-1.4,2.6-1.9c1-0.5,2.2-0.7,3.5-0.7
		c1.6,0,2.9,0.3,4.1,1c1.1,0.7,2,1.5,2.6,2.6l-3,2.1c-0.2-0.6-0.6-1.1-1-1.4c-0.4-0.3-0.9-0.6-1.4-0.7c-0.5-0.1-1-0.2-1.4-0.2
		c-0.7,0-1.3,0.1-1.9,0.4c-0.5,0.3-1,0.7-1.4,1.2c-0.4,0.5-0.6,1-0.8,1.6c-0.2,0.6-0.3,1.2-0.3,1.8c0,0.7,0.1,1.3,0.3,1.9
		c0.2,0.6,0.5,1.1,0.9,1.6c0.4,0.5,0.8,0.8,1.4,1.1c0.5,0.3,1.1,0.4,1.8,0.4c0.5,0,0.9-0.1,1.4-0.2c0.5-0.1,0.9-0.4,1.3-0.7
		c0.4-0.3,0.7-0.8,0.9-1.4l3.2,1.9c-0.3,0.8-0.9,1.5-1.6,2.1c-0.7,0.6-1.6,1-2.5,1.3c-0.9,0.3-1.9,0.5-2.8,0.5
		c-1.2,0-2.3-0.2-3.3-0.7c-1-0.5-1.9-1.1-2.6-2c-0.7-0.8-1.3-1.7-1.7-2.8C255.1,103.4,254.9,102.4,254.9,101.3z"/>
	<path class="st0" d="M272.7,92.7h3.7v12.7c0,0.5,0.1,0.9,0.3,1.1c0.2,0.2,0.5,0.3,0.8,0.3c0.2,0,0.4,0,0.7-0.1
		c0.2-0.1,0.5-0.2,0.6-0.3l0.5,2.8c-0.5,0.2-1,0.4-1.6,0.5c-0.6,0.1-1.2,0.2-1.7,0.2c-1.1,0-1.9-0.3-2.5-0.9
		c-0.6-0.6-0.9-1.4-0.9-2.4V92.7z"/>
	<path class="st0" d="M281.3,105.4v-7.8h3.7v6.9c0,0.7,0.2,1.3,0.5,1.7c0.3,0.4,0.7,0.6,1.3,0.6c0.3,0,0.7-0.1,1-0.2
		c0.3-0.1,0.6-0.3,0.9-0.6c0.3-0.3,0.6-0.6,0.8-1v-7.5h3.7v8c0,0.4,0.1,0.6,0.2,0.8c0.1,0.2,0.3,0.2,0.6,0.3v3.1
		c-0.3,0.1-0.6,0.1-0.9,0.2c-0.3,0-0.5,0-0.7,0c-0.7,0-1.2-0.1-1.6-0.4c-0.4-0.3-0.6-0.6-0.7-1.2l-0.1-0.7c-0.6,0.8-1.3,1.4-2.1,1.8
		c-0.8,0.4-1.8,0.6-2.8,0.6c-1.2,0-2.2-0.4-2.9-1.2C281.6,108.1,281.3,106.9,281.3,105.4z"/>
	<path class="st0" d="M304.8,110c-0.9,0-1.7-0.2-2.4-0.6c-0.7-0.4-1.2-0.9-1.7-1.7v2h-3.2v-17h3.7v7c0.4-0.7,0.9-1.2,1.6-1.6
		c0.7-0.4,1.5-0.6,2.4-0.6c0.8,0,1.5,0.2,2.1,0.5c0.6,0.3,1.2,0.8,1.7,1.3c0.5,0.6,0.8,1.3,1.1,2c0.3,0.8,0.4,1.6,0.4,2.5
		c0,0.9-0.1,1.7-0.4,2.4c-0.3,0.8-0.7,1.4-1.2,2c-0.5,0.6-1.1,1-1.8,1.3C306.3,109.8,305.6,110,304.8,110z M303.7,106.8
		c0.4,0,0.8-0.1,1.2-0.2c0.4-0.2,0.7-0.4,0.9-0.6c0.3-0.3,0.5-0.6,0.6-1c0.1-0.4,0.2-0.8,0.2-1.2c0-0.6-0.1-1.1-0.4-1.6
		c-0.2-0.5-0.6-0.9-1-1.2c-0.4-0.3-0.9-0.4-1.4-0.4c-0.4,0-0.8,0.1-1.1,0.3c-0.4,0.2-0.7,0.4-1,0.8c-0.3,0.3-0.5,0.7-0.7,1.1v2.5
		c0.1,0.2,0.3,0.5,0.5,0.7c0.2,0.2,0.4,0.4,0.6,0.5c0.2,0.1,0.5,0.3,0.7,0.3C303.2,106.8,303.5,106.8,303.7,106.8z"/>
</g>
<g>
	<g>
		
			<linearGradient id="SVGID_1_" gradientUnits="userSpaceOnUse" x1="-675.6639" y1="927.9574" x2="-668.5753" y2="868.5921" gradientTransform="matrix(1 0 0 1 702.4898 -843.2336)">
			<stop  offset="0" style="stop-color:#00D2D2"/>
			<stop  offset="0.1227" style="stop-color:#10C0CC"/>
			<stop  offset="0.3674" style="stop-color:#3A93BB"/>
			<stop  offset="0.7077" style="stop-color:#7D4AA1"/>
			<stop  offset="0.9975" style="stop-color:#BA0789"/>
		</linearGradient>
		<path class="st1" d="M33.8,85.4c-6.1,0-11.4-2.2-15.7-6.5L6.9,67.7c-4.3-4.3-6.5-9.6-6.5-15.7c0-3.7,0.9-7.1,2.6-10.1
			c0.6-1,1.3-2,2.1-3l0.3-0.4l-4.5-4.5l0-10.3h18.7l10.9,10.9l0,16.9c-2.6,0.7-4.7,2.1-6.3,4.2c-1.6,2.1-2.4,4.6-2.4,7.3l0,0.8
			l0.5,0.1l0.3,0c3.3,0,6.2-1.2,8.6-3.5c2.3-2.3,3.5-5.2,3.5-8.6l0-19.3h18.2l10.9,10.9l0,10.3h-7.7l0,9.4c0,6.2-2.2,11.5-6.5,15.8
			C45.3,83.2,40,85.4,33.8,85.4z"/>
		<g>
			<path class="st0" d="M19.4,24.2l10.6,10.6l0,16.3c-2.5,0.8-4.6,2.2-6.2,4.3c-1.7,2.2-2.5,4.8-2.5,7.7c0,0.1,0,0.2,0,0.2l0,0.1
				l0,1.1l1.1,0l0.1,0c0.1,0,0.2,0,0.2,0c3.5,0,6.5-1.2,9-3.7c2.5-2.5,3.7-5.5,3.7-9l0-18.7h17.4l10.6,10.6l0,9.5h-6.5h-1.1l0,1.1
				l0,8.8c0,6-2.1,11.2-6.3,15.4c-4.2,4.2-9.4,6.3-15.4,6.3c-5.9,0-11.1-2.1-15.3-6.3L7.3,67.3c-4.2-4.2-6.4-9.4-6.4-15.3
				c0-3.5,0.9-6.9,2.6-9.8c0.6-1,1.2-2,2-2.9l0.7-0.8l-0.7-0.7l-4-4l0-9.5H19.4 M19.9,23.1H0.3l0,11.1l4.3,4.3c-0.8,1-1.5,2-2.1,3
				c-1.8,3.2-2.7,6.7-2.7,10.4c0,6.3,2.3,11.7,6.7,16.1l11.2,11.2c4.5,4.4,9.9,6.7,16.1,6.7c6.3,0,11.8-2.2,16.2-6.7
				c4.4-4.4,6.7-9.9,6.7-16.2l0-8.8h7.7l0-11.1L53.1,31.9h-19l0,19.9c0,3.2-1.1,6-3.4,8.2c-2.2,2.2-5,3.4-8.2,3.4
				c-0.1,0-0.2,0-0.3,0c0-0.1,0-0.2,0-0.3c0-2.6,0.8-5,2.3-7c1.5-2,3.6-3.4,6-4l0.4-0.1l0-17.6L19.9,23.1L19.9,23.1z"/>
		</g>
	</g>
	<g>
		
			<linearGradient id="SVGID_00000032607901018759919990000005954146730155631003_" gradientUnits="userSpaceOnUse" x1="-615.356" y1="929.566" x2="-607.9153" y2="867.2529" gradientTransform="matrix(1 0 0 1 702.4898 -843.2336)">
			<stop  offset="0" style="stop-color:#00D2D2"/>
			<stop  offset="0.1227" style="stop-color:#10C0CC"/>
			<stop  offset="0.3674" style="stop-color:#3A93BB"/>
			<stop  offset="0.7077" style="stop-color:#7D4AA1"/>
			<stop  offset="0.9975" style="stop-color:#BA0789"/>
		</linearGradient>
		<path style="fill:url(#SVGID_00000032607901018759919990000005954146730155631003_);" d="M79.2,85.4L68.3,74.5l0-10.3h25.9
			c2,0,3.7-0.7,5.1-2.1l1-1l-1.4,0H87.2L76.3,50.2l0-5.9h-4.2L61.3,33.4l0-10.3h25.4L97.5,34l0,6.2l0.5,0.1c3.1,0.7,6,2.2,8.4,4.6
			l11.2,11.2c3.3,3.3,5,7.4,5,12.1c0,4.7-1.7,8.8-5,12.1c-3.3,3.3-7.4,5-12.1,5H79.2z"/>
		<g>
			<path class="st0" d="M86.4,23.6l10.6,10.6l0,5.5l0,0.9l0.9,0.2c3,0.6,5.8,2.2,8.1,4.5l11.2,11.2c3.2,3.2,4.9,7.2,4.9,11.7
				c0,4.6-1.6,8.5-4.8,11.7c-3.2,3.2-7.2,4.8-11.7,4.8h-26L68.9,74.3l0-9.5l25.3,0c2.1,0,4-0.8,5.5-2.3l0,0l0,0l1.9-1.9h-2.8H87.5
				L76.9,49.9l0-5.1l0-1.1h-1.1h-3.4L61.8,33.2l0-9.5H86.4 M86.9,22.5H60.7l0,11.1l11.2,11.2h3.9l0,5.6L87,61.6h11.9c0,0,0,0,0,0
				c-1.3,1.3-2.8,1.9-4.7,1.9l-26.5,0l0,11.1L79,86h26.5c4.9,0,9.1-1.7,12.5-5.2c3.4-3.4,5.2-7.7,5.2-12.5c0-4.9-1.7-9.1-5.2-12.5
				l-11.2-11.2c-2.5-2.5-5.4-4.1-8.7-4.8l0-6L86.9,22.5L86.9,22.5z"/>
		</g>
	</g>
	<g>
		<g>
			
				<linearGradient id="SVGID_00000003100886468307012470000017535830897601629598_" gradientUnits="userSpaceOnUse" x1="154.7676" y1="283.9616" x2="161.312" y2="229.1541" gradientTransform="matrix(0.9929 0.1186 -0.1186 0.9929 20.4546 -218.242)">
				<stop  offset="0" style="stop-color:#00D2D2"/>
				<stop  offset="0.1227" style="stop-color:#10C0CC"/>
				<stop  offset="0.3674" style="stop-color:#3A93BB"/>
				<stop  offset="0.7077" style="stop-color:#7D4AA1"/>
				<stop  offset="0.9975" style="stop-color:#BA0789"/>
			</linearGradient>
			<path style="fill:url(#SVGID_00000003100886468307012470000017535830897601629598_);" d="M155.3,84.9c-6.8,0-12.5-2.3-16.9-6.7
				l-11.2-11.2c-4.4-4.4-6.6-10.1-6.6-16.9l0-27.1h10.3l10.9,10.9l0,27.4c0,0.6,0,1.2,0.1,1.9l0,0.5l0.5,0c0.6,0.1,1.2,0.1,1.8,0.1
				c4,0,7.2-1.3,9.8-3.7c2.5-2.5,3.8-5.8,3.8-9.9l0-10.9H168L178.9,50l0,11.3c0,6.8-2.3,12.4-6.7,16.9
				C167.7,82.6,162.1,84.9,155.3,84.9z"/>
		</g>
		<g>
			<path class="st0" d="M130.6,23.5l10.6,10.6l0,27.2c0,0.6,0,1.3,0.1,1.9l0.1,0.9l0.9,0.1c0.6,0.1,1.2,0.1,1.8,0.1
				c4.1,0,7.5-1.3,10.2-3.9c2.6-2.6,4-6.1,4-10.3l0-10.4h9.5l10.6,10.6l0,11c0,6.6-2.2,12.1-6.5,16.5c-4.3,4.3-9.9,6.5-16.5,6.5
				c-6.6,0-12.2-2.2-16.5-6.5l-11.2-11.2c-4.3-4.3-6.5-9.9-6.5-16.5l0-26.5H130.6 M131.1,22.4H120l0,27.6c0,6.9,2.3,12.8,6.8,17.3
				L138,78.6c4.5,4.6,10.3,6.9,17.3,6.9c0,0,0,0,0,0c6.9,0,12.7-2.3,17.3-6.9c4.6-4.6,6.9-10.4,6.9-17.3l0-11.5l-11.2-11.2h-11.1
				l0,11.5c0,3.9-1.2,7.1-3.6,9.5c-2.4,2.4-5.6,3.6-9.4,3.6c-0.6,0-1.2,0-1.7-0.1c-0.1-0.6-0.1-1.2-0.1-1.8l0-27.6L131.1,22.4
				L131.1,22.4z"/>
		</g>
	</g>
	<g>
		
			<linearGradient id="SVGID_00000151527432458193642080000016781099084637782404_" gradientUnits="userSpaceOnUse" x1="-499.9933" y1="928.8389" x2="-492.3147" y2="864.5329" gradientTransform="matrix(1 0 0 1 702.4898 -843.2336)">
			<stop  offset="0" style="stop-color:#00D2D2"/>
			<stop  offset="0.1227" style="stop-color:#10C0CC"/>
			<stop  offset="0.3674" style="stop-color:#3A93BB"/>
			<stop  offset="0.7077" style="stop-color:#7D4AA1"/>
			<stop  offset="0.9975" style="stop-color:#BA0789"/>
		</linearGradient>
		<path style="fill:url(#SVGID_00000151527432458193642080000016781099084637782404_);" d="M206.5,86c-3.7,0-6.9-1.3-9.4-3.9
			l-11.2-11.2c-2.6-2.6-3.9-5.7-3.9-9.4c0-2.7,0.7-5.1,2.1-7.3l0.3-0.4l-7.7-7.7l0-9.4h4.1l-4.1-4.1l0-9.4h25.4v-1.5h10.3l1.5,1.5
			h12.7l10.9,10.9l0,9.4h-4.1l4.1,4.1l0,9.4h-7.1l7.1,7.1l0,9.4h-14l0,0.5c-0.1,1.2-0.3,2.3-0.6,3.4c-0.3,0.7-0.6,1.4-1,2.1
			c-0.2,0.3-0.4,0.7-0.7,1c-0.5,0.6-1,1.2-1.6,1.8c-2.6,2.4-5.8,3.7-9.3,3.7H206.5z"/>
		<g>
			<path class="st0" d="M212,22.3l1.2,1.2l0.3,0.3h0.5l12.2,0l10.6,10.6l0,8.6h-2.2h-2.8l1.9,1.9l3,3l0,8.6h-5.1h-2.8l1.9,1.9l6,6
				l0,8.6l-12.9,0l-1.1,0l0,1.1c0,1.1-0.3,2.2-0.6,3.2c-0.2,0.7-0.6,1.3-0.9,2c-0.2,0.3-0.4,0.6-0.6,0.9c-0.5,0.6-1,1.2-1.6,1.7
				c-2.5,2.3-5.5,3.5-8.9,3.5h-3.6c-3.5,0-6.6-1.3-9-3.7l-11.2-11.2c-2.5-2.5-3.7-5.5-3.7-9c0-2.6,0.7-4.9,2-6.9l0.5-0.8l-0.7-0.7
				l-7.2-7.2l0-8.6h2.2h2.8l-1.9-1.9l-3-3l0-8.6h24.2h1.1l0-1.1l0-0.4H212 M212.5,21.2h-11.1l0,1.5H176l0,10.2l3.3,3.3H176l0,10.2
				l7.5,7.5c-1.4,2.2-2.2,4.7-2.2,7.6c0,3.8,1.4,7.1,4.1,9.8l11.2,11.2c2.7,2.7,6,4.1,9.8,4.1h3.6c3.7,0,7-1.3,9.7-3.8
				c0.6-0.6,1.2-1.2,1.7-1.9c0.2-0.3,0.5-0.7,0.7-1c0.4-0.7,0.8-1.4,1-2.2c0.4-1.1,0.6-2.3,0.7-3.6v0h14l0-10.2l-6.3-6.3h6.3l0-10.2
				l-3.3-3.3h3.3l0-10.2l-11.2-11.2l-12.7,0L212.5,21.2L212.5,21.2z"/>
		</g>
	</g>
	<g>
		<g>
			
				<linearGradient id="SVGID_00000076579066754677673540000011376250098864082587_" gradientUnits="userSpaceOnUse" x1="284.2614" y1="279.6811" x2="295.0699" y2="189.1638" gradientTransform="matrix(0.9929 0.1186 -0.1186 0.9929 20.4546 -218.242)">
				<stop  offset="0" style="stop-color:#00D2D2"/>
				<stop  offset="0.1227" style="stop-color:#10C0CC"/>
				<stop  offset="0.3674" style="stop-color:#3A93BB"/>
				<stop  offset="0.7077" style="stop-color:#7D4AA1"/>
				<stop  offset="0.9975" style="stop-color:#BA0789"/>
			</linearGradient>
			<polygon style="fill:url(#SVGID_00000076579066754677673540000011376250098864082587_);" points="299.6,86 288.6,75 286.4,69.5 
				263,69.5 256.5,86 239.8,86 229.1,75.2 259.9,0.6 274.5,0.6 285.5,11.5 316.1,86 			"/>
		</g>
		<g>
			<path class="st0" d="M274.3,1.1L285,11.9L285,12l30.3,73.4h-15.5l-10.7-10.7l-2-5.1l-0.3-0.7H286h-22.6h-0.8l-0.3,0.7l-6.2,15.8
				h-16L229.7,75l30.5-73.9H274.3 M274.7,0h-15.3l-31.1,75.3l11.2,11.2h17.3l6.5-16.5H286l2.1,5.3l11.2,11.2H317l-30.9-75l-0.1-0.4
				L274.7,0L274.7,0z"/>
		</g>
	</g>
	<g>
		
			<linearGradient id="SVGID_00000144314673812171252820000007734244293522460065_" gradientUnits="userSpaceOnUse" x1="-358.3239" y1="924.423" x2="-401.8054" y2="849.1109" gradientTransform="matrix(1 0 0 1 702.4898 -843.2336)">
			<stop  offset="0" style="stop-color:#00D2D2"/>
			<stop  offset="0.1227" style="stop-color:#10C0CC"/>
			<stop  offset="0.3674" style="stop-color:#3A93BB"/>
			<stop  offset="0.7077" style="stop-color:#7D4AA1"/>
			<stop  offset="0.9975" style="stop-color:#BA0789"/>
		</linearGradient>
		<polygon style="fill:url(#SVGID_00000144314673812171252820000007734244293522460065_);" points="319.8,86 308.9,75.1 309,1.1 
			325,1.1 335.9,12 335.9,86 		"/>
		<g>
			<path class="st0" d="M324.8,1.7l10.6,10.6l0,73.2h-15.2l-10.6-10.6l0-73.2H324.8 M325.2,0.5h-16.8l0,74.8l11.2,11.2h16.8l0-74.8
				L325.2,0.5L325.2,0.5z"/>
		</g>
	</g>
	<g>
		
			<linearGradient id="SVGID_00000137828374549192912300000009726050811921375874_" gradientUnits="userSpaceOnUse" x1="-339.1244" y1="929.8569" x2="-330.9197" y2="861.1455" gradientTransform="matrix(1 0 0 1 702.4898 -843.2336)">
			<stop  offset="0" style="stop-color:#00D2D2"/>
			<stop  offset="0.1227" style="stop-color:#10C0CC"/>
			<stop  offset="0.3674" style="stop-color:#3A93BB"/>
			<stop  offset="0.7077" style="stop-color:#7D4AA1"/>
			<stop  offset="0.9975" style="stop-color:#BA0789"/>
		</linearGradient>
		<polygon style="fill:url(#SVGID_00000137828374549192912300000009726050811921375874_);" points="347.1,84.7 336.2,73.8 
			336.2,51.3 340.4,51.3 336.2,47.1 336.2,38.8 339.3,38.8 339.3,34.3 336.3,31.2 336.3,22.9 344.7,22.9 344.7,19.9 354.6,19.9 
			357.6,22.9 363.1,22.9 365.4,25.2 365.4,19.9 388.3,19.9 399.2,30.8 399.2,42.6 395.1,54.7 399.2,66.9 399.2,77.3 387.1,77.3 
			387.1,84.7 376.3,84.7 374,82.4 374,84.7 		"/>
		<g>
			<path class="st0" d="M388.1,20.5L398.6,31l0,11.5l-4,11.9l-0.1,0.4l0.1,0.4l4,11.9l0,9.8h-11h-1.1l0,1.1l0,6.2h-10l-1.2-1.2
				l-1.9-1.9l0,2.7l0,0.4l-26.1,0l-10.6-10.6l0-21.7h2.2h2.8l-1.9-1.9l-3-3l0-7.5h1.9h1.1l0-1.1l0-3.7l0-0.5l-0.3-0.3l-2.7-2.7
				l0-7.5h7.4h1.1l0-1.1l0-1.8h9l2.6,2.6l0.3,0.3h0.5h5.1l1.2,1.2l1.9,1.9l0-2.8l0-3.3L388.1,20.5 M388.6,19.3l-23.7,0l0,4.5
				l-1.5-1.5h-5.6l-3-3h-10.7l0,3h-8.5l0,9.1l3,3l0,3.7h-3l0,9.1l3.4,3.4h-3.4l0,23.3l11.2,11.2l27.7,0l0-1.5l1.5,1.5h11.6l0-7.3
				h12.1l0-11.1l-4-12.1l4-12.1l0-12.1L388.6,19.3L388.6,19.3z"/>
		</g>
	</g>
	<g>
		<g>
			<path class="st8" d="M18.7,24.2l0,15.6c-2.5,0.8-4.6,2.2-6.2,4.3c-1.7,2.2-2.5,4.8-2.5,7.7c0,3.5,1.2,6.5,3.7,9
				c2.5,2.5,5.5,3.7,9,3.7c3.5,0,6.5-1.2,9-3.7c2.5-2.5,3.7-5.5,3.7-9l0-18.7H52l0,8.8h-7.7l0,10c0,6-2.1,11.2-6.3,15.4
				c-4.2,4.2-9.4,6.4-15.4,6.4c-5.9,0-11.1-2.1-15.3-6.3c-4.2-4.2-6.4-9.4-6.4-15.3c0-3.5,0.9-6.9,2.6-9.8c1.6-2.8,3.9-5.2,6.8-7.1
				l0.3-0.2l0-1.8H1.4l0-8.8L18.7,24.2z"/>
		</g>
		<g>
			<path class="st8" d="M85.7,23.6l0,16.8h8.5c4.5,0,8.5,1.6,11.7,4.9c3.2,3.2,4.9,7.2,4.9,11.7c0,4.6-1.6,8.5-4.8,11.7
				c-3.2,3.2-7.2,4.8-11.7,4.8l-25.3,0l0-8.9h25.3c2.1,0,4-0.8,5.5-2.3c1.5-1.5,2.3-3.4,2.3-5.5c0-2.1-0.8-3.9-2.3-5.4
				c-1.5-1.5-3.4-2.3-5.5-2.3H76.9l0-16.8H61.8l0-8.9L85.7,23.6z"/>
		</g>
		<g>
			<path class="st8" d="M130,23.5l0,26.5c0,4.2,1.3,7.6,3.9,10.3c2.6,2.6,6.1,4,10.3,4c4.1,0,7.5-1.3,10.2-3.9c2.6-2.6,4-6.1,4-10.3
				l0-10.4h8.8l0,10.4c0,6.6-2.2,12.1-6.5,16.5c-4.3,4.3-9.9,6.5-16.5,6.5c-6.6,0-12.2-2.2-16.5-6.5c-4.3-4.3-6.5-9.9-6.5-16.5
				l0-26.5H130z"/>
		</g>
		<g>
			<path class="st8" d="M225.5,31.7h-14.2l0,5.6h14.2l0,7.9h-14.2l0,8.6h14.2l0,7.9h-14l0,0.6c0,3.2-1.3,6.1-3.8,8.4
				c-2.5,2.3-5.5,3.5-8.9,3.5h-3.6c-3.5,0-6.6-1.3-9-3.7c-2.5-2.5-3.7-5.5-3.7-9c0-3.6,1.2-6.6,3.7-9.1c2.4-2.4,5.5-3.7,9.1-3.7h3.6
				c1,0,2,0.1,3,0.3l0.7,0.2l0-4l-25.4,0l0-7.9h25.4l0-5.6l-25.4,0l0-7.9l25.4,0l0-1.5l8.9,0l0,1.5h14.2L225.5,31.7z M201.1,64.9
				c0.9-0.9,1.4-2.1,1.4-3.5c0-1.4-0.5-2.5-1.4-3.4c-0.9-0.9-2.1-1.4-3.4-1.4h-2.5c-1.3,0-2.5,0.5-3.4,1.4c-0.9,0.9-1.4,2.1-1.4,3.5
				c0,1.3,0.5,2.5,1.4,3.4c0.9,0.9,2.1,1.4,3.4,1.4h2.5C199,66.3,200.1,65.8,201.1,64.9"/>
		</g>
		<g>
			<path class="st8" d="M274,1.1l30.1,73l-15.2,0l-6.5-16.5h-31l-6.5,16.5h-14.8l30.2-73L274,1.1z M256.6,44.5h20.7l-10.3-26
				L256.6,44.5"/>
		</g>
		<g>
			<rect x="309.5" y="1.7" class="st8" width="14.6" height="72.5"/>
		</g>
		<g>
			<g>
				<path class="st8" d="M336.8,51.9h25.4l0,21l-25.4,0L336.8,51.9z M349.5,67.8c3,0,5.4-2.4,5.4-5.4c0-3-2.4-5.4-5.4-5.4
					s-5.4,2.4-5.4,5.4C344.1,65.4,346.5,67.8,349.5,67.8"/>
			</g>
			<g>
				<path class="st8" d="M387.4,20.5l0,10.8l-4.1,12.2l4.1,12.2l0,9.8h-12.1l0,7.3H366l0-52.4L387.4,20.5z M373.3,58.7h5.8l0-3.1
					l-4-12.1l4-12l0-0.1l0-4.1h-5.8L373.3,58.7"/>
			</g>
			<path class="st8" d="M362.2,30.3l0-6.9h-8.5l0-3h-8.4l0,3h-8.5l0,6.9h3l0,9h-3l0,6.9l25.4,0l0-6.9h-2l0-9H362.2z M353.3,39.4
				h-6.6l0-9l6.6,0L353.3,39.4z"/>
		</g>
	</g>
	<g>
		<g>
			<path class="st0" d="M34.2,31.9l19,0l0,11.1h-7.7l0,8.8c0,6.3-2.2,11.8-6.7,16.2c-4.4,4.4-9.9,6.7-16.2,6.7
				c-6.2,0-11.7-2.2-16.1-6.7C2,63.6-0.2,58.2-0.2,51.9c0-3.7,0.9-7.2,2.7-10.4c1.6-2.9,3.9-5.3,6.9-7.3l-9.1-0.1l0-11.1h19.6
				l0,17.6l-0.4,0.1c-2.5,0.7-4.5,2-6,4c-1.5,2-2.3,4.4-2.3,7c0,3.2,1.1,5.9,3.4,8.2c2.2,2.2,5,3.4,8.2,3.4c3.2,0,5.9-1.1,8.2-3.4
				c2.2-2.2,3.4-5,3.4-8.2L34.2,31.9z M52,41.8l0-8.8H35.3l0,18.7c0,3.5-1.2,6.6-3.7,9c-2.5,2.5-5.5,3.7-9,3.7c-3.5,0-6.5-1.2-9-3.7
				c-2.5-2.5-3.7-5.5-3.7-9c0-2.9,0.9-5.5,2.5-7.7c1.6-2.1,3.7-3.6,6.2-4.3l0-15.6l-17.3,0l0,8.8h9.1l0,1.8L10.2,35
				c-2.9,1.9-5.2,4.3-6.8,7.1c-1.7,3-2.6,6.3-2.6,9.8c0,6,2.1,11.1,6.4,15.3c4.2,4.2,9.4,6.3,15.3,6.3c6,0,11.2-2.1,15.4-6.4
				c4.2-4.2,6.3-9.4,6.3-15.4l0-10H52"/>
		</g>
		<g>
			<path class="st0" d="M106.7,44.5c3.4,3.5,5.2,7.7,5.2,12.5c0,4.9-1.7,9.1-5.2,12.5c-3.4,3.4-7.6,5.2-12.5,5.2l-26.5,0l0-11.1
				l26.5,0c1.8,0,3.4-0.6,4.7-1.9c1.3-1.3,1.9-2.8,1.9-4.7c0-1.8-0.6-3.3-1.9-4.6c-1.3-1.3-2.8-1.9-4.7-1.9H75.8l0-16.8H60.7l0-11.1
				l26.2,0l0,16.8l7.4,0C99.1,39.3,103.3,41,106.7,44.5z M106,68.8c3.2-3.2,4.8-7.2,4.8-11.7c0-4.5-1.6-8.5-4.9-11.7
				c-3.2-3.2-7.2-4.9-11.7-4.9h-8.5l0-16.8l-23.9,0l0,8.9l15.1,0l0,16.8h17.3c2.1,0,4,0.8,5.5,2.3c1.5,1.5,2.3,3.3,2.3,5.4
				c0,2.1-0.8,4-2.3,5.5c-1.5,1.5-3.4,2.3-5.5,2.3l-25.3,0l0,8.9h25.3C98.8,73.6,102.7,72,106,68.8"/>
		</g>
		<g>
			<path class="st0" d="M157.2,38.6h11.1l0,11.5c0,6.9-2.3,12.7-6.9,17.3c-4.6,4.6-10.4,6.9-17.3,6.9c-6.9,0-12.8-2.3-17.3-6.9
				C122.3,62.8,120,57,120,50l0-27.6h11.1l0,27.6c0,3.9,1.2,7.1,3.6,9.5c2.4,2.4,5.6,3.6,9.5,3.6c3.8,0,7-1.2,9.4-3.6
				c2.4-2.4,3.6-5.6,3.6-9.5L157.2,38.6z M167.1,50.1l0-10.4h-8.8l0,10.4c0,4.2-1.3,7.7-4,10.3c-2.6,2.6-6,3.9-10.2,3.9
				c-4.2,0-7.7-1.3-10.3-4c-2.6-2.6-3.9-6.1-3.9-10.3l0-26.5h-8.8l0,26.5c0,6.6,2.2,12.2,6.5,16.5c4.3,4.3,9.8,6.5,16.5,6.5
				c6.6,0,12.1-2.2,16.5-6.5C164.9,62.2,167.1,56.7,167.1,50.1"/>
		</g>
		<g>
			<path class="st0" d="M226.7,32.9l-14.2,0l0,3.3h14.2l0,10.2l-14.2,0l0,6.3h14.2l0,10.2h-14c-0.1,3.3-1.5,6.2-4.1,8.6
				c-2.7,2.5-6,3.8-9.7,3.8h-3.6c-3.8,0-7.2-1.4-9.8-4.1c-2.7-2.7-4.1-6-4.1-9.8c0-3.9,1.4-7.2,4-9.9c2.7-2.7,6-4,9.9-4h3.6
				c0.9,0,1.7,0.1,2.5,0.2l0-1.4H176l0-10.2l25.4,0l0-3.3H176l0-10.2l25.4,0l0-1.5l11.1,0l0,1.5h14.2L226.7,32.9z M225.5,37.3
				l-14.2,0l0-5.6l14.2,0l0-7.9h-14.2l0-1.5l-8.9,0l0,1.5l-25.4,0l0,7.9l25.4,0l0,5.6h-25.4l0,7.9l25.4,0l0,4l-0.7-0.2
				c-1-0.2-2-0.3-3-0.3h-3.6c-3.6,0-6.6,1.2-9.1,3.7c-2.4,2.4-3.7,5.5-3.7,9.1c0,3.5,1.2,6.5,3.7,9c2.5,2.5,5.5,3.7,9,3.7h3.6
				c3.4,0,6.4-1.2,8.9-3.5c2.5-2.3,3.8-5.1,3.8-8.4l0-0.6h14l0-7.9h-14.2l0-8.6h14.2L225.5,37.3"/>
		</g>
		<g>
			<path class="st0" d="M197.6,56.6c1.4,0,2.5,0.5,3.4,1.4c0.9,0.9,1.4,2.1,1.4,3.4c0,1.4-0.5,2.5-1.4,3.5c-0.9,0.9-2.1,1.4-3.4,1.4
				h-2.5c-1.3,0-2.5-0.5-3.4-1.4s-1.4-2.1-1.4-3.4c0-1.4,0.5-2.5,1.4-3.5c0.9-0.9,2.1-1.4,3.4-1.4L197.6,56.6z M200.2,64.1
				c0.7-0.7,1.1-1.6,1.1-2.7c0-1.1-0.3-1.9-1.1-2.6c-0.7-0.7-1.6-1.1-2.6-1.1h-2.5c-1,0-1.9,0.4-2.6,1.1c-0.7,0.7-1.1,1.6-1.1,2.7
				c0,1,0.4,1.9,1.1,2.6c0.7,0.7,1.6,1.1,2.6,1.1h2.5C198.7,65.2,199.5,64.8,200.2,64.1"/>
		</g>
		<g>
			<path class="st0" d="M256.6,44.5l10.3-26l10.3,26H256.6z M258.2,43.3h17.3l-8.6-21.8L258.2,43.3"/>
		</g>
		<g>
			<path class="st0" d="M274.9,0.4l30.9,75h-17.7l-6.5-16.5l-29.4,0l-6.5,16.5h-17.3L259.5,0l15.3,0L274.9,0.4z M282.4,57.7
				l6.5,16.5h15.2L274,1.1l-13.7,0l-30.2,73h14.8l6.5-16.5L282.4,57.7"/>
		</g>
		<g>
			<path class="st0" d="M308.4,0.5l16.8,0l0,74.8h-16.8L308.4,0.5z M324.1,74.2l0-72.5l-14.6,0l0,72.5H324.1"/>
		</g>
		<g>
			<path class="st0" d="M346.7,39.4l0-9h6.6l0,9L346.7,39.4z M347.9,31.5l0,6.8h4.3l0-6.8H347.9"/>
		</g>
		<g>
			<path class="st0" d="M363.4,31.5h-2l0,6.8h2l0,9.1h-27.7l0-9.1h3l0-6.8h-3l0-9.1h8.5l0-3l10.7,0l0,3h8.5L363.4,31.5z M362.2,39.4
				h-2l0-9h2l0-6.9h-8.5l0-3l-8.4,0l0,3l-8.5,0l0,6.9h3l0,9h-3l0,6.9h25.4L362.2,39.4"/>
		</g>
		<g>
			<path class="st0" d="M335.7,50.7h27.7l0,23.3h-27.7L335.7,50.7z M362.2,72.9l0-21h-25.4l0,21H362.2"/>
		</g>
		<g>
			<path class="st0" d="M349.5,67.8c-3,0-5.4-2.4-5.4-5.4c0-3,2.4-5.4,5.4-5.4c3,0,5.4,2.4,5.4,5.4
				C354.9,65.4,352.5,67.8,349.5,67.8z M349.5,58.1c-2.4,0-4.3,1.9-4.3,4.3c0,2.4,1.9,4.3,4.3,4.3c2.4,0,4.3-1.9,4.3-4.3
				C353.8,60,351.9,58.1,349.5,58.1"/>
		</g>
		<g>
			<path class="st0" d="M379.2,55.6l0,3.1h-5.8l0-31.3h5.8l0,4.1l0,0.1l-4,12L379.2,55.6z M374.5,28.5l0,13.5l3.6-10.7l0-2.8H374.5
				 M378,57.5l0-1.8l-3.6-10.7l0,12.5H378"/>
		</g>
		<g>
			<path class="st0" d="M388.6,31.5l-4,12.1l4,12.1l0,11.1h-12.1l0,7.3h-11.6l0-54.7l23.7,0L388.6,31.5z M387.4,31.3l0-10.8l-21.4,0
				l0,52.4h9.3l0-7.3l12.1,0l0-9.8l-4.1-12.2L387.4,31.3"/>
		</g>
	</g>
</g>
</svg>
