<?xml version="1.0" encoding="utf-8"?>
<!-- Generator: Adobe Illustrator 28.0.0, SVG Export Plug-In . SVG Version: 6.00 Build 0)  -->
<svg version="1.1" id="_x32_" xmlns="http://www.w3.org/2000/svg" xmlns:xlink="http://www.w3.org/1999/xlink" x="0px" y="0px"
	 viewBox="0 0 60 60" style="enable-background:new 0 0 60 60;" xml:space="preserve">
<style type="text/css">
	.st0{fill:#00D2D2;}
</style>
<g>
	<g>
		<path class="st0" d="M52.8,18.4h-2.6v15.8h2.6c1.8,0,3.2-1.4,3.2-3.1v-9.5C56,19.8,54.6,18.4,52.8,18.4z"/>
		<path d="M52.8,34.7h-2.6c-0.3,0-0.5-0.2-0.5-0.5V18.4c0-0.3,0.2-0.5,0.5-0.5h2.6c2,0,3.7,1.6,3.7,3.6v9.5
			C56.5,33.1,54.8,34.7,52.8,34.7z M50.7,33.7h2.1c1.5,0,2.7-1.2,2.7-2.6v-9.5c0-1.5-1.2-2.6-2.7-2.6h-2.1V33.7z"/>
	</g>
	<g>
		<path class="st0" d="M51.4,0.5H48H8.6C6,0.5,4,2.5,4,5V55c0,2.5,2,4.5,4.6,4.5h34.8c2.5,0,4.6-2,4.6-4.5V16.3h4.8
			c1.8,0,3.2-1.4,3.2-3.1V5C56,2.5,54,0.5,51.4,0.5z M19.1,22.1c0-3.9,3.2-7.1,7.2-7.1s7.2,3.2,7.2,7.1v2c0,3.9-3.2,7.1-7.2,7.1
			s-7.2-3.2-7.2-7.1L19.1,22.1L19.1,22.1z M26.3,44.5H13.2c0-5.9,3.5-10.7,10.2-11.8c0.9,0.3,1.9,0.5,2.9,0.5c1,0,2-0.2,2.9-0.5
			c6.7,1.1,10.2,5.9,10.2,11.8H26.3z"/>
		<path d="M43.4,60H8.6c-2.8,0-5.1-2.2-5.1-5V5c0-2.7,2.3-5,5.1-5h42.9c2.8,0,5.1,2.2,5.1,5v8.2c0,2-1.7,3.6-3.7,3.6h-4.3V55
			C48.5,57.8,46.2,60,43.4,60z M8.6,1C6.3,1,4.5,2.8,4.5,5V55c0,2.2,1.8,4,4.1,4h34.8c2.2,0,4.1-1.8,4.1-4V16.3
			c0-0.3,0.2-0.5,0.5-0.5h4.8c1.5,0,2.7-1.2,2.7-2.6V5c0-2.2-1.8-4-4.1-4H8.6z M39.4,45H13.2c-0.3,0-0.5-0.2-0.5-0.5
			c0-6.5,4.1-11.2,10.6-12.3c0.1,0,0.2,0,0.2,0c1.8,0.6,3.7,0.6,5.5,0c0.1,0,0.2,0,0.2,0c6.5,1.1,10.6,5.7,10.6,12.3
			C39.9,44.8,39.7,45,39.4,45z M13.7,44.1h25.2c-0.2-5.7-3.8-9.8-9.6-10.8c-1.9,0.6-4,0.6-5.9,0C17.5,34.3,13.9,38.4,13.7,44.1z
			 M26.3,31.6c-4.2,0-7.7-3.4-7.7-7.5v-2c0-4.2,3.4-7.5,7.7-7.5s7.7,3.4,7.7,7.5v2C34,28.3,30.5,31.6,26.3,31.6z M26.3,15.5
			c-3.7,0-6.7,2.9-6.7,6.6v2c0,3.6,3,6.6,6.7,6.6c3.7,0,6.7-2.9,6.7-6.6v-2C33,18.5,30,15.5,26.3,15.5z"/>
	</g>
</g>
</svg>
