<?xml version="1.0" encoding="utf-8"?>
<!-- Generator: Adobe Illustrator 28.0.0, SVG Export Plug-In . SVG Version: 6.00 Build 0)  -->
<svg version="1.1" id="_x32_" xmlns="http://www.w3.org/2000/svg" xmlns:xlink="http://www.w3.org/1999/xlink" x="0px" y="0px"
	 viewBox="0 0 60 60" style="enable-background:new 0 0 60 60;" xml:space="preserve">
<style type="text/css">
	.st0{fill:#00D2D2;}
</style>
<g>
	<g>
		<path class="st0" d="M58.3,41.4L54,41.9c-0.6,0.1-1.5-0.3-1.9-0.8L35.6,19.5c-0.4-0.5-1-0.5-1.3,0.1L19.9,44.7
			c-0.3,0.6-0.1,1.1,0.6,1.2l27,3.2c0.6,0.1,1.4,0.6,1.7,1.2l1.8,4c0.5,1.1,1.8,0.8,2-0.1c0,0,0.7-2.9,2.3-5.6
			c1.5-2.6,4.1-5.5,4.1-5.5C59.9,42.5,59.4,41.3,58.3,41.4z"/>
		<path d="M51.9,55.5c-0.6,0-1.1-0.4-1.4-1l-1.8-4c-0.2-0.4-0.9-0.8-1.3-0.9l-27-3.2c-0.5-0.1-0.8-0.3-1-0.6
			c-0.2-0.4-0.2-0.8,0.1-1.2l14.5-25.1c0.2-0.4,0.5-0.7,0.9-0.7c0.4,0,0.8,0.2,1.1,0.5l16.5,21.6c0.3,0.4,1,0.7,1.4,0.6l4.3-0.5
			c0,0,0,0,0,0c0.7-0.1,1.3,0.3,1.6,0.8c0.3,0.6,0.2,1.3-0.2,1.7c0,0-2.6,2.8-4.1,5.4c-1.5,2.6-2.2,5.4-2.2,5.5
			c-0.1,0.6-0.7,1.1-1.3,1.2C52,55.5,52,55.5,51.9,55.5z M35,19.6C35,19.6,34.9,19.6,35,19.6c-0.1,0-0.1,0.1-0.2,0.2L20.3,45
			c-0.1,0.2-0.1,0.3-0.1,0.3c0,0,0.1,0.1,0.3,0.1l27,3.2c0.7,0.1,1.7,0.7,2.1,1.4l1.8,4c0.1,0.3,0.3,0.4,0.6,0.4
			c0.2,0,0.4-0.2,0.5-0.4c0-0.1,0.7-3.1,2.3-5.7c1.5-2.7,4.1-5.5,4.2-5.6c0.2-0.2,0.1-0.5,0.1-0.6c-0.1-0.1-0.2-0.3-0.6-0.3L54,42.4
			c-0.7,0.1-1.8-0.3-2.3-1L35.2,19.8C35.1,19.7,35,19.6,35,19.6z"/>
	</g>
	<g>
		<polygon class="st0" points="30.2,19.7 21.1,5 19,6.3 28.1,21 		"/>
		<path d="M28.1,21.5c-0.2,0-0.3-0.1-0.4-0.2L18.6,6.5c-0.1-0.1-0.1-0.2-0.1-0.4c0-0.1,0.1-0.2,0.2-0.3l2.1-1.3
			c0.2-0.1,0.5-0.1,0.7,0.2l9.1,14.7c0.1,0.1,0.1,0.2,0.1,0.4c0,0.1-0.1,0.2-0.2,0.3l-2.1,1.3C28.3,21.4,28.2,21.5,28.1,21.5z
			 M19.7,6.4l8.6,13.9l1.2-0.8L20.9,5.7L19.7,6.4z"/>
	</g>
	<g>
		<polygon class="st0" points="0.5,40.8 17.9,41.2 18,38.7 0.6,38.3 		"/>
		<path d="M17.9,41.7C17.9,41.7,17.9,41.7,17.9,41.7L0.5,41.3c-0.1,0-0.3-0.1-0.3-0.2C0.1,41,0,40.9,0,40.8l0.1-2.5
			c0-0.3,0.2-0.5,0.5-0.5c0,0,0,0,0,0L18,38.2c0.1,0,0.3,0.1,0.3,0.2c0.1,0.1,0.1,0.2,0.1,0.4l-0.1,2.5
			C18.4,41.5,18.2,41.7,17.9,41.7z M1,40.3l16.4,0.4l0.1-1.5L1.1,38.8L1,40.3z"/>
	</g>
</g>
</svg>
