<?xml version="1.0" encoding="utf-8"?>
<!-- Generator: Adobe Illustrator 28.0.0, SVG Export Plug-In . SVG Version: 6.00 Build 0)  -->
<svg version="1.1" id="_x32_" xmlns="http://www.w3.org/2000/svg" xmlns:xlink="http://www.w3.org/1999/xlink" x="0px" y="0px"
	 viewBox="0 0 60 60" style="enable-background:new 0 0 60 60;" xml:space="preserve">
<style type="text/css">
	.st0{fill:#00D2D2;}
</style>
<g>
	<g>
		<path class="st0" d="M11.2,37.8h37.6c3,0,5.4-2.4,5.4-5.4V10.9c0-3-2.4-5.4-5.4-5.4H11.2c-3,0-5.4,2.4-5.4,5.4v21.4
			C5.8,35.4,8.2,37.8,11.2,37.8z M9.6,10.9c0-0.9,0.7-1.6,1.6-1.6h37.6c0.9,0,1.6,0.7,1.6,1.6v20.8c0,0.9-0.7,1.6-1.6,1.6H11.2
			c-0.9,0-1.6-0.7-1.6-1.6C9.6,31.7,9.6,10.9,9.6,10.9z"/>
		<path d="M48.8,38.3H11.2c-3.2,0-5.8-2.7-5.8-5.9V10.9C5.3,7.7,8,5,11.2,5h37.6c3.2,0,5.8,2.7,5.8,5.9v21.4
			C54.7,35.6,52,38.3,48.8,38.3z M11.2,6c-2.7,0-4.9,2.2-4.9,4.9v21.4c0,2.7,2.2,4.9,4.9,4.9h37.6c2.7,0,4.9-2.2,4.9-4.9V10.9
			c0-2.7-2.2-4.9-4.9-4.9H11.2z M48.8,33.8H11.2c-1.1,0-2.1-0.9-2.1-2.1V10.9c0-1.2,0.9-2.1,2.1-2.1h37.6c1.1,0,2.1,0.9,2.1,2.1
			v20.8C50.9,32.9,50,33.8,48.8,33.8z M11.2,9.8c-0.6,0-1.1,0.5-1.1,1.1v20.8c0,0.6,0.5,1.1,1.1,1.1h37.6c0.6,0,1.1-0.5,1.1-1.1
			V10.9c0-0.6-0.5-1.1-1.1-1.1H11.2z"/>
	</g>
	<g>
		<path class="st0" d="M58.9,48.8l-4.9-7c-0.4-0.6-1.1-1-1.9-1H7.8c-0.8,0-1.5,0.4-1.9,1l-4.9,7c-0.8,1.2-0.8,2.6,0,3.8
			c0.8,1.2,2.2,1.9,3.7,1.9h50.5c1.5,0,2.9-0.7,3.7-1.9C59.7,51.4,59.7,49.9,58.9,48.8z M31.2,50.8h-2.4h-5.3l1.8-2.9h3.5h2.4h3.5
			l1.8,2.9H31.2z"/>
		<path d="M55.2,55H4.8c-1.7,0-3.3-0.8-4.1-2.1c-0.9-1.3-0.9-3,0-4.4l4.9-7c0.5-0.7,1.3-1.2,2.3-1.2h44.4c0.9,0,1.8,0.5,2.3,1.2
			l4.9,7c0,0,0,0,0,0c0.9,1.4,0.9,3,0,4.4C58.5,54.2,56.9,55,55.2,55z M7.8,41.3c-0.6,0-1.2,0.3-1.4,0.7l-4.9,7
			c-0.6,1-0.6,2.3,0,3.3c0.7,1,1.9,1.7,3.3,1.7h50.5c1.4,0,2.6-0.6,3.3-1.7c0.7-1,0.7-2.3,0-3.3l-4.9-7c-0.3-0.5-0.9-0.8-1.5-0.8
			H7.8z M36.5,51.3h-13c-0.2,0-0.3-0.1-0.4-0.3s-0.1-0.4,0-0.5l1.8-2.9c0.1-0.1,0.2-0.2,0.4-0.2h9.4c0.2,0,0.3,0.1,0.4,0.2l1.8,2.9
			c0.1,0.2,0.1,0.3,0,0.5C36.9,51.2,36.7,51.3,36.5,51.3z M24.4,50.3h11.2l-1.2-1.9h-8.8L24.4,50.3z"/>
	</g>
</g>
</svg>
