<?xml version="1.0" encoding="utf-8"?>
<!-- Generator: Adobe Illustrator 28.0.0, SVG Export Plug-In . SVG Version: 6.00 Build 0)  -->
<svg version="1.1" id="_x32_" xmlns="http://www.w3.org/2000/svg" xmlns:xlink="http://www.w3.org/1999/xlink" x="0px" y="0px"
	 viewBox="0 0 60 60" style="enable-background:new 0 0 60 60;" xml:space="preserve">
<style type="text/css">
	.st0{fill:#00D2D2;}
</style>
<g>
	<path class="st0" d="M60,39.6c0-5.4-4.4-10-10.5-11.7c-1.8,7-7.8,12.8-16.2,15.4c-0.9,0.4-2,0.8-3.2,1.2c1.6,3,4.7,5.4,8.6,6.6
		c3.1,1.2,9.8,3.6,16.7,4.3l-2.4-5.4C57.2,47.9,60,44,60,39.6z"/>
	<path d="M50.1,29.2C55.5,31,59,35.1,59,39.6c0,3.8-2.5,7.4-6.6,9.5l-0.8,0.4l0.4,0.9l1.7,3.8c-6-0.9-11.7-2.9-14.7-4l0,0l0,0
		c-3.1-1-5.7-2.8-7.4-5.1c0.7-0.3,1.4-0.5,2.1-0.8C41.8,41.7,47.9,36.1,50.1,29.2 M49.5,27.9c-1.8,7-7.8,12.8-16.2,15.4
		c-0.9,0.4-2,0.8-3.2,1.2c1.6,3,4.7,5.4,8.6,6.6c3.1,1.2,9.8,3.6,16.7,4.3l-2.4-5.4c4.3-2.2,7.1-6,7.1-10.4
		C60,34.2,55.6,29.6,49.5,27.9L49.5,27.9z"/>
</g>
<g>
	<g>
		<path class="st0" d="M27.3,18.8c-0.5-0.6-1-1-1.7-1.4s-1.4-0.5-2.2-0.5c-0.8,0-1.6,0.2-2.3,0.5c-0.7,0.4-1.2,0.8-1.7,1.4
			s-0.8,1.2-1,2S18,22.3,18,23.1c0,0.8,0.1,1.6,0.4,2.3c0.2,0.7,0.6,1.4,1,2c0.5,0.6,1,1,1.7,1.4c0.7,0.3,1.4,0.5,2.3,0.5
			c0.9,0,1.6-0.2,2.3-0.5c0,0,0.1-0.1,0.1-0.1L23,25.5h3.4l1.2,1.4c0.3-0.5,0.6-1,0.8-1.6c0.2-0.7,0.3-1.5,0.3-2.2
			c0-0.8-0.1-1.6-0.4-2.3C28.1,20,27.8,19.4,27.3,18.8z"/>
		<path d="M23.4,17.9c0.7,0,1.3,0.1,1.8,0.4c0.5,0.3,1,0.6,1.4,1.1c0.4,0.5,0.7,1,0.9,1.6c0.2,0.6,0.3,1.3,0.3,2
			c0,0.6-0.1,1.3-0.3,1.9c0,0,0,0.1,0,0.1l-0.3-0.3l-0.3-0.3h-0.4H23h-2.2l1.5,1.7l1.8,2c-0.2,0-0.5,0-0.7,0c-0.7,0-1.3-0.1-1.8-0.4
			c-0.5-0.3-1-0.6-1.4-1.1c-0.4-0.5-0.7-1-0.9-1.6c-0.2-0.6-0.3-1.3-0.3-2c0-0.7,0.1-1.3,0.3-1.9c0.2-0.6,0.5-1.2,0.9-1.7
			c0.4-0.5,0.8-0.9,1.4-1.1C22.1,18.1,22.7,17.9,23.4,17.9 M23.4,16.9c-0.8,0-1.6,0.2-2.3,0.5c-0.7,0.4-1.2,0.8-1.7,1.4
			s-0.8,1.2-1,2S18,22.3,18,23.1c0,0.8,0.1,1.6,0.4,2.3c0.2,0.7,0.6,1.4,1,2c0.5,0.6,1,1,1.7,1.4c0.7,0.3,1.4,0.5,2.3,0.5
			c0.9,0,1.6-0.2,2.3-0.5c0,0,0.1-0.1,0.1-0.1L23,25.5h3.4l1.2,1.4c0.3-0.5,0.6-1,0.8-1.6c0.2-0.7,0.3-1.5,0.3-2.2
			c0-0.8-0.1-1.6-0.4-2.3c-0.2-0.7-0.6-1.4-1.1-2c-0.5-0.6-1-1-1.7-1.4S24.2,16.9,23.4,16.9L23.4,16.9z"/>
	</g>
	<g>
		<path class="st0" d="M23.6,4.5C10.6,4.5,0,12.9,0,23.3C0,29.9,4.3,35.7,10.8,39l-3.7,8.2c10.4-1.2,20.5-4.7,25.2-6.5
			c8.7-2.8,14.9-9.5,14.9-17.4C47.3,12.9,36.7,4.5,23.6,4.5z M29,32.3L28,31.1c-0.3,0.2-0.7,0.4-1,0.6c-1.1,0.5-2.3,0.7-3.6,0.7
			c-1.3,0-2.6-0.3-3.6-0.8c-1.1-0.5-2-1.2-2.8-2.1c-0.8-0.9-1.4-1.9-1.8-3c-0.4-1.1-0.6-2.3-0.6-3.4c0-1.2,0.2-2.4,0.7-3.5
			c0.5-1.1,1.1-2.1,1.9-3c0.8-0.9,1.8-1.6,2.9-2.1c1.1-0.5,2.3-0.8,3.6-0.8c1.3,0,2.5,0.3,3.6,0.8c1.1,0.5,2,1.2,2.8,2.1
			c0.8,0.9,1.4,1.9,1.8,3c0.4,1.1,0.6,2.2,0.6,3.4c0,1.2-0.2,2.4-0.7,3.5c-0.4,1-1,2-1.7,2.8l2.5,2.8H29z"/>
		<path d="M23.6,5.5c12.5,0,22.6,8,22.6,17.8c0,7.3-5.6,13.8-14.2,16.5l0,0l0,0c-4.7,1.8-13.7,5-23.2,6.3l2.9-6.6l0.4-0.9l-0.8-0.4
			C4.8,34.8,1,29.3,1,23.3C1,13.5,11.2,5.5,23.6,5.5 M23.4,33.4c1.4,0,2.8-0.3,4-0.8c0.1-0.1,0.3-0.1,0.4-0.2l0.5,0.6l0.3,0.3H29
			h3.4h2.2l-1.5-1.7l-2-2.2c0.6-0.7,1-1.6,1.4-2.4c0.5-1.2,0.7-2.5,0.7-3.8c0-1.3-0.2-2.6-0.7-3.8c-0.5-1.2-1.1-2.3-2-3.3
			c-0.9-1-1.9-1.8-3.1-2.4c-1.2-0.6-2.6-0.9-4.1-0.9c-1.4,0-2.8,0.3-4,0.9c-1.2,0.6-2.3,1.3-3.2,2.3c-0.9,1-1.6,2.1-2.1,3.3
			c-0.5,1.2-0.8,2.5-0.8,3.9c0,1.3,0.2,2.6,0.7,3.8c0.5,1.2,1.2,2.3,2,3.3c0.9,1,1.9,1.8,3.1,2.3C20.5,33.1,21.9,33.4,23.4,33.4
			 M23.6,4.5C10.6,4.5,0,12.9,0,23.3C0,29.9,4.3,35.7,10.8,39l-3.7,8.2c10.4-1.2,20.5-4.7,25.2-6.5c8.7-2.8,14.9-9.5,14.9-17.4
			C47.3,12.9,36.7,4.5,23.6,4.5L23.6,4.5z M23.4,32.4c-1.3,0-2.6-0.3-3.6-0.8c-1.1-0.5-2-1.2-2.8-2.1c-0.8-0.9-1.4-1.9-1.8-3
			c-0.4-1.1-0.6-2.3-0.6-3.4c0-1.2,0.2-2.4,0.7-3.5c0.5-1.1,1.1-2.1,1.9-3c0.8-0.9,1.8-1.6,2.9-2.1c1.1-0.5,2.3-0.8,3.6-0.8
			c1.3,0,2.5,0.3,3.6,0.8c1.1,0.5,2,1.2,2.8,2.1c0.8,0.9,1.4,1.9,1.8,3c0.4,1.1,0.6,2.2,0.6,3.4c0,1.2-0.2,2.4-0.7,3.5
			c-0.4,1-1,2-1.7,2.8l2.5,2.8H29L28,31.1c-0.3,0.2-0.7,0.4-1,0.6C25.9,32.1,24.7,32.4,23.4,32.4L23.4,32.4z"/>
	</g>
</g>
</svg>
