<?xml version="1.0" encoding="utf-8"?>
<!-- Generator: Adobe Illustrator 28.0.0, SVG Export Plug-In . SVG Version: 6.00 Build 0)  -->
<svg version="1.1" id="_x32_" xmlns="http://www.w3.org/2000/svg" xmlns:xlink="http://www.w3.org/1999/xlink" x="0px" y="0px"
	 viewBox="0 0 60 60" style="enable-background:new 0 0 60 60;" xml:space="preserve">
<style type="text/css">
	.st0{fill:#00D2D2;}
</style>
<g>
	<g>
		<path class="st0" d="M19.3,10.8c1.6,0,2.9-1.3,2.9-2.9V3.4c0-1.6-1.3-2.9-2.9-2.9c-1.6,0-2.9,1.3-2.9,2.9v4.6
			C16.4,9.5,17.7,10.8,19.3,10.8z"/>
		<path d="M19.3,11.3c-1.9,0-3.4-1.5-3.4-3.4V3.4c0-1.9,1.5-3.4,3.4-3.4c1.9,0,3.4,1.5,3.4,3.4v4.6C22.8,9.8,21.2,11.3,19.3,11.3z
			 M19.3,1c-1.3,0-2.4,1.1-2.4,2.4v4.6c0,1.3,1.1,2.4,2.4,2.4c1.3,0,2.4-1.1,2.4-2.4V3.4C21.8,2.1,20.7,1,19.3,1z"/>
	</g>
	<g>
		<path class="st0" d="M41,10.8c1.6,0,2.9-1.3,2.9-2.9V3.4c0-1.6-1.3-2.9-2.9-2.9c-1.6,0-2.9,1.3-2.9,2.9v4.6
			C38.1,9.5,39.4,10.8,41,10.8z"/>
		<path d="M41,11.3c-1.9,0-3.4-1.5-3.4-3.4V3.4C37.6,1.5,39.1,0,41,0c1.9,0,3.4,1.5,3.4,3.4v4.6C44.5,9.8,42.9,11.3,41,11.3z M41,1
			c-1.3,0-2.4,1.1-2.4,2.4v4.6c0,1.3,1.1,2.4,2.4,2.4s2.4-1.1,2.4-2.4V3.4C43.5,2.1,42.4,1,41,1z"/>
	</g>
	<g>
		<path class="st0" d="M51.2,4.6h-4.7v3.3c0,3-2.5,5.4-5.5,5.4c-3,0-5.5-2.4-5.5-5.4V4.6H24.9v3.3c0,3-2.5,5.4-5.5,5.4
			c-3,0-5.5-2.4-5.5-5.4V4.6h-5c-4.6,0-8.3,3.6-8.3,8.1v38.6c0,4.5,3.7,8.1,8.3,8.1h42.5c4.6,0,8.3-3.6,8.3-8.1V12.8
			C59.5,8.3,55.8,4.6,51.2,4.6z M55.5,51.4c0,2.3-1.9,4.2-4.2,4.2H8.8c-2.3,0-4.2-1.9-4.2-4.2V17.9h51V51.4z"/>
		<path d="M51.2,60H8.8C3.9,60,0,56.1,0,51.4V12.8C0,8,3.9,4.1,8.8,4.1h5c0.3,0,0.5,0.2,0.5,0.5v3.3c0,2.7,2.3,5,5,5
			c2.8,0,5-2.2,5-5V4.6c0-0.3,0.2-0.5,0.5-0.5h10.6c0.3,0,0.5,0.2,0.5,0.5v3.3c0,2.7,2.3,5,5,5s5-2.2,5-5V4.6c0-0.3,0.2-0.5,0.5-0.5
			h4.7c4.8,0,8.8,3.9,8.8,8.6v38.6C60,56.1,56.1,60,51.2,60z M8.8,5.1C4.5,5.1,1,8.5,1,12.8v38.6C1,55.6,4.5,59,8.8,59h42.5
			c4.3,0,7.8-3.4,7.8-7.6V12.8c0-4.2-3.5-7.6-7.8-7.6h-4.2v2.8c0,3.3-2.7,5.9-6,5.9c-3.3,0-6-2.7-6-5.9V5.1h-9.6v2.8
			c0,3.3-2.7,5.9-6,5.9c-3.3,0-6-2.7-6-5.9V5.1H8.8z M51.2,56H8.8C6.2,56,4,53.9,4,51.4V17.9c0-0.3,0.2-0.5,0.5-0.5h51
			c0.3,0,0.5,0.2,0.5,0.5v33.5C56,53.9,53.8,56,51.2,56z M5,18.4v33c0,2,1.7,3.7,3.7,3.7h42.5c2.1,0,3.7-1.7,3.7-3.7v-33H5z"/>
	</g>
	<g>
		<rect x="20.5" y="44.6" class="st0" width="7.4" height="7.3"/>
		<path d="M28,52.4h-7.4c-0.3,0-0.5-0.2-0.5-0.5v-7.3c0-0.3,0.2-0.5,0.5-0.5H28c0.3,0,0.5,0.2,0.5,0.5v7.3
			C28.5,52.2,28.2,52.4,28,52.4z M21,51.4h6.4v-6.3H21V51.4z"/>
	</g>
	<g>
		<rect x="20.5" y="33.2" class="st0" width="7.4" height="7.3"/>
		<path d="M28,41h-7.4c-0.3,0-0.5-0.2-0.5-0.5v-7.3c0-0.3,0.2-0.5,0.5-0.5H28c0.3,0,0.5,0.2,0.5,0.5v7.3C28.5,40.8,28.2,41,28,41z
			 M21,40.1h6.4v-6.3H21V40.1z"/>
	</g>
	<g>
		<rect x="9" y="44.6" class="st0" width="7.4" height="7.3"/>
		<path d="M16.4,52.4H9c-0.3,0-0.5-0.2-0.5-0.5v-7.3c0-0.3,0.2-0.5,0.5-0.5h7.4c0.3,0,0.5,0.2,0.5,0.5v7.3
			C16.9,52.2,16.7,52.4,16.4,52.4z M9.5,51.4h6.4v-6.3H9.5V51.4z"/>
	</g>
	<g>
		<rect x="9" y="33.2" class="st0" width="7.4" height="7.3"/>
		<path d="M16.4,41H9c-0.3,0-0.5-0.2-0.5-0.5v-7.3c0-0.3,0.2-0.5,0.5-0.5h7.4c0.3,0,0.5,0.2,0.5,0.5v7.3C16.9,40.8,16.7,41,16.4,41z
			 M9.5,40.1h6.4v-6.3H9.5V40.1z"/>
	</g>
	<g>
		<rect x="43.6" y="21.9" class="st0" width="7.4" height="7.3"/>
		<path d="M51,29.7h-7.4c-0.3,0-0.5-0.2-0.5-0.5v-7.3c0-0.3,0.2-0.5,0.5-0.5H51c0.3,0,0.5,0.2,0.5,0.5v7.3
			C51.5,29.5,51.3,29.7,51,29.7z M44.1,28.7h6.4v-6.3h-6.4V28.7z"/>
	</g>
	<g>
		<rect x="32" y="21.9" class="st0" width="7.4" height="7.3"/>
		<path d="M39.5,29.7H32c-0.3,0-0.5-0.2-0.5-0.5v-7.3c0-0.3,0.2-0.5,0.5-0.5h7.4c0.3,0,0.5,0.2,0.5,0.5v7.3
			C40,29.5,39.8,29.7,39.5,29.7z M32.5,28.7H39v-6.3h-6.4V28.7z"/>
	</g>
	<g>
		<rect x="32" y="33.2" class="st0" width="7.4" height="7.3"/>
		<path d="M39.5,41H32c-0.3,0-0.5-0.2-0.5-0.5v-7.3c0-0.3,0.2-0.5,0.5-0.5h7.4c0.3,0,0.5,0.2,0.5,0.5v7.3C40,40.8,39.8,41,39.5,41z
			 M32.5,40.1H39v-6.3h-6.4V40.1z"/>
	</g>
	<g>
		<rect x="43.6" y="33.2" class="st0" width="7.4" height="7.3"/>
		<path d="M51,41h-7.4c-0.3,0-0.5-0.2-0.5-0.5v-7.3c0-0.3,0.2-0.5,0.5-0.5H51c0.3,0,0.5,0.2,0.5,0.5v7.3C51.5,40.8,51.3,41,51,41z
			 M44.1,40.1h6.4v-6.3h-6.4V40.1z"/>
	</g>
	<g>
		<rect x="32" y="44.6" class="st0" width="7.4" height="7.3"/>
		<path d="M39.5,52.4H32c-0.3,0-0.5-0.2-0.5-0.5v-7.3c0-0.3,0.2-0.5,0.5-0.5h7.4c0.3,0,0.5,0.2,0.5,0.5v7.3
			C40,52.2,39.8,52.4,39.5,52.4z M32.5,51.4H39v-6.3h-6.4V51.4z"/>
	</g>
	<g>
		<rect x="20.5" y="21.9" class="st0" width="7.4" height="7.3"/>
		<path d="M28,29.7h-7.4c-0.3,0-0.5-0.2-0.5-0.5v-7.3c0-0.3,0.2-0.5,0.5-0.5H28c0.3,0,0.5,0.2,0.5,0.5v7.3
			C28.5,29.5,28.2,29.7,28,29.7z M21,28.7h6.4v-6.3H21V28.7z"/>
	</g>
</g>
</svg>
